<svg id="Calque_1" data-name="Calque 1" xmlns="http://www.w3.org/2000/svg" viewBox="0 0 176.78 40.95"><defs><style>.cls-1{fill:#fff;}.cls-2{fill:#c12f38;}</style></defs><title>logo-murdher</title><path class="cls-1" d="M28.56,1.33h.1a.16.16,0,0,1,.14,0,4.35,4.35,0,0,1,.63-.29c0,.15-.1.24-.1.29s.19.1.19.15c0,.72.05,1.05.1,1.05s.09-.24.09-.67V1.43h.1c.05,0,.05,0,.1-.05s0,0,0,0V1.24H30c.15-.15.24-.2.29-.2a.11.11,0,0,1,.1.1s.09,0,.09.05.05-.24.19-.24h.1a.11.11,0,0,1,.1.09v.1l0,.05.05.05c.05-.05.39-.24.43-.39l.24.24s.05,0,.05.1l.05.1c0,.14.1.33.1.47a19,19,0,0,1,.19,2v.34a3.12,3.12,0,0,0-.1.43v.38l0,0C32,5,32,5,32,5v.09c0,.15.19.39.19.44V8.29a6.86,6.86,0,0,0,.1.72.1.1,0,0,0,.09-.09l-.09-.15s.09,0,.09,0a.82.82,0,0,1-.09-.24A1.9,1.9,0,0,1,32.4,8a.1.1,0,0,1,.1.09.18.18,0,0,1,0,.15l-.05.09c0,.05.1.48.1.67V9.4c0,.33,0,.48-.19.53v0s.09.1.09.15-.09.05-.09.19.19.34.19.48V11c0,.34-.1,1.25-.1,1.63a4,4,0,0,0,.1.53.17.17,0,0,1,0,.14v.05h0l0,.15,0,.09v.1a1.59,1.59,0,0,1,.09.33v.29l0,.05a1.4,1.4,0,0,1,0,.38v.34c0,.14.1.43.1.62a5.18,5.18,0,0,1-.1.92s.1,0,.1.09a3.8,3.8,0,0,0-.1.63c0,.19.1.72.1,1v.28a.72.72,0,0,0-.1.29.67.67,0,0,0,.1.29v.24a2.29,2.29,0,0,0,0,1.34c0,.05.05.24.05.29a3.49,3.49,0,0,0-.05.72,3.35,3.35,0,0,0,.1.58s0,0,0,.05,0,0,0,0,0,.15,0,.2l0,0V23l0,.05a.47.47,0,0,1,.14.24l-.09.05a.41.41,0,0,1,.09.19v.58c0,.14.1.57.1.76v.39l-.1.1s.1.14.1.19v.09c0,.05-.1.05-.1.1,0,.33-.05.77-.09,1.25v.57c0,.39.09,1.15.09,1.49v1.54l-.09,0,.09.05s-.05.15-.14.48l0,.05s0,.72,0,.87c0,.38,0,1.24,0,1.63v.72a6,6,0,0,1-.39,2.35V37s0,0-.09,0l-.1,0-.05.05s0,0,0,.09H32v.15a9.23,9.23,0,0,1-1.83.52s-.33-.14-.38-.14h-.29c-.14,0-.19,0-.19.05-.14-.15-1-.1-1.15-.29v0a1.45,1.45,0,0,0-.48,0s-.29-.19-.29-.33h-.1s-.14-.24-.19-.24-.05-.05-.09-.05h-.1a1.17,1.17,0,0,0-.58-.19c0-.15-.19-.24-.19-.43-.14,0-.19,0-.19.14l-.29-.53c-.14,0-.19,0-.19-.19v-.05c0,.05-.1.05-.1.1a2.71,2.71,0,0,1-.38-.67c-.05,0-.05,0-.05,0l-.05.1c-.14,0,0-.1-.19-.1v0a.18.18,0,0,0,0-.15l0,0-.05-.05h.05c0-.14.19-.09.19-.14s.14.05.14.1v0c0,.05,0,.1-.05.1.2,0,.29,0,.29-.14v-.1s0,0-.05,0l0-.09,0,0,.05,0v-1a.43.43,0,0,0-.09-.24.48.48,0,0,1-.2-.38v-.1c0-.33.29-1.2.29-1.44l-.05,0c0-.05,0-.05,0-.1l.09-.24a1.41,1.41,0,0,0,.1-.43s-.19-.43-.19-.48V29.8h.09l-.09-.05c0-.05.09-.19.09-.24s-.09,0-.09-.05a.59.59,0,0,0,.09-.33c-.05,0-.14.24-.19.24H25a.78.78,0,0,1,.15-.39.43.43,0,0,0,.09-.29l.1,0h.19c.05-.14.05-.29.1-.43v0c-.05,0-.15.1-.2.1v-.05s.1-.29.1-.33c0-.2-.19-.63-.19-.82s.05-.24.05-.29v-.05l0-.09s0,0,0-.05-.05-.77-.05-1v-.38c.05-.05.09-.15.19-.29,0-.58.1-2,.1-2.55,0-1.44.19-1,.19-2V19.43a3.12,3.12,0,0,0-.1-.43,8.41,8.41,0,0,1,.19-1.68v-.48l.05-.15s.1-.14.15-.19v-1c-.15,0-.15.2-.2.24h-.09a.38.38,0,0,0-.05-.14c-.05-.05-.05-.14-.1-.24l-.09-.29-.29.58a7.24,7.24,0,0,0-.24.77c-.05.09-.14.43-.38,1a4.57,4.57,0,0,0-.34.92c-.14.57-.29,1-.34,1.15a1.54,1.54,0,0,0-.14.33,5.92,5.92,0,0,1-.43,1.69A5.79,5.79,0,0,0,23,22.65c-.14.38-.33.81-.48,1.34a14.66,14.66,0,0,1-.86,1.73l0,.05v.05a3.38,3.38,0,0,1-.19.76l-.05.05c-.05.14-.14.29-.19.43a.18.18,0,0,1-.05.15l-.29.86a4.94,4.94,0,0,1-.19.87l-.14.72c-.19.43-.34,1.48-.48,1.82a5.67,5.67,0,0,1-.24,1.2l-.24.14v0s0,0-.05,0-.14,0-.14.19c-.24,0-.34.1-.39.1s-.09.28-.14.28h-.05l-.05,0s.05-.24.05-.29a0,0,0,0,0-.05,0,.17.17,0,0,1,.05-.1l.05,0s-.05,0-.05,0l.05,0a.59.59,0,0,1,.09-.24c0,.05,0,.05-.09.05l.05-.1,0,0V32.2c.1-.05.15-.1.15-.19v-.1s-.1.05-.15.1v-.24s0,0,0,.05l-.05-.2c-.05,0-.19.29-.19.39v.05a1.22,1.22,0,0,0-.24.67c0,.09-.05.14-.1.14h-.05s.1-.14.1-.19h-.05a1,1,0,0,0,.14-.34l0,0,0,0,.05,0c0-.05,0-.05-.05-.05l0-.09s0-.05,0-.1v-.05l0,.05h-.05a1,1,0,0,1-.19.38s0,0,0-.09l0,0,0-.1s0,0-.09,0,0-.1-.05-.1,0,.24-.05.29a.17.17,0,0,1-.05-.1.14.14,0,0,1,.05-.09c-.09,0-.14,0-.14-.05l.05,0h0v0c.05,0,.05-.48.2-.53s0-.05-.1-.05l.05-.14c0-.05,0-.05-.05-.05s-.05.14-.1.14,0,0,0,0a1.26,1.26,0,0,1,.14-.44h.05l-.05.05v.1a.36.36,0,0,0,.05-.24c0-.1,0-.15-.05-.15l-.1.15.05,0h.05l-.05,0-.09.05-.05.1c0,.09,0,.14-.05.14v0c0,.05,0,.05,0,.1l-.09.09-.05-.05-.1.05c0-.14.1-.24.1-.29s0,0-.05-.09-.1.38-.19.48v-.05a0,0,0,0,0-.05-.05h0l0-.05.05,0-.15.19v0s0,0,0-.15v-.09c0-.05,0-.05,0-.05a.19.19,0,0,1,0-.1.73.73,0,0,1,.09-.24v-.43a.54.54,0,0,0-.09.33l-.1.39v.05l-.05.05s.05,0,.05,0a.17.17,0,0,1-.05.1l-.05.19h0a.16.16,0,0,1-.05-.14,1.5,1.5,0,0,1,.19-.63v-.09l.1-.58a.19.19,0,0,0,0-.14h0l-.1.05a.78.78,0,0,0-.1.23.17.17,0,0,0,.05.1.47.47,0,0,0-.14.24v.1l-.1.09V31l.05.05,0,.05-.1.24a0,0,0,0,0,.05-.05.17.17,0,0,0-.05.1c-.05,0-.05.14-.05.24h0c-.05.19-.1.28-.15.28l0-.09v-.05l0,0v-.09s-.14.24-.19.24l.05,0,0,.05V32h-.1c-.05-.05-.05-.1-.05-.19s-.05,0-.09.05a5.32,5.32,0,0,1-.15.62l0-.1,0-.14,0-.1s-.09,0-.14.15a.18.18,0,0,1,0-.15,2.36,2.36,0,0,1,0-.33l-.05.09c0,.05,0,.05-.05.05s0,.05.05.05l-.14.1a.39.39,0,0,1-.1.19V32.1a.94.94,0,0,1,.1-.43h.05c0-.05,0-.05,0-.09s-.14.14-.19.14a.16.16,0,0,1,0,.14c0,.05,0,.05,0,.05s0,0,0,.05,0,0-.09,0a0,0,0,0,1-.05,0c-.05,0-.05-.05-.05-.1v-.09c0-.05,0-.05-.09-.05l0-.1v-.09a.25.25,0,0,0-.24.19h0l.05,0h.05v0c0,.24,0,.34-.05.34l-.05-.24L15,31.77a.17.17,0,0,0-.1.05h0s0,0,0,.09l-.1.15h0V32l0,0-.05,0,0,.05L14.59,32l-.09.38h-.05v0a.12.12,0,0,1-.14-.14,1.37,1.37,0,0,0,0-.2s0,0,0,.1l-.05-.05a0,0,0,0,0,0,.05.11.11,0,0,1-.1-.1V32a.75.75,0,0,0-.19.33l-.05,0s-.09,0-.09.1,0-.39-.1-.43l0,.14-.05,0v.09s0,0,0,0a.29.29,0,0,1,0-.15v-.09c0-.05,0-.05,0-.05s-.19.19-.24.19,0-.1-.05-.1,0-.14.05-.14-.05-.19-.05-.24c-.15,0-.34.38-.38.38l0,.1a.39.39,0,0,1-.1-.29A4,4,0,0,1,13,31c0-.14.1-.53.1-.72L13,30.18v-.09L13,30a2.91,2.91,0,0,1-.19-.29c0-.05-.15-.19-.15-.24l0-.09c-.05-.05-.1-.05-.1-.1s-.09-.38-.09-.53l-.05.05-.1-.19c0-.2-.09-.24-.09-.29H12.1l0-.05c-.05,0-.05,0-.05-.1L11.86,28a.18.18,0,0,1,0-.15v-.14c-.05-.05-.1-.05-.1-.1V27.4l0,0-.05-.05v0l0-.05v-.1l-.19-.19v-.05A5.57,5.57,0,0,1,11,26.1L10.94,26c0-.1,0-.19-.09-.29s-.1-.19-.1-.24v-.05c-.19-.48-.52-1.05-1-2v-.1c0-.05-.09-.14-.09-.19a.16.16,0,0,0,0-.14.38.38,0,0,0-.1-.25A3.25,3.25,0,0,0,9.31,22c-.05-.19-.19-.52-.24-.67A1.08,1.08,0,0,1,9,21v0H9v0H9c0-.05-.05-.1-.1-.24s-.1-.15-.1-.19l0-.1v-.1l-.1,0-.05-.05c0-.05-.05-.29-.05-.34v-.05s0,0,0-.09l-.2-.58V19l0-.05,0-.05a.83.83,0,0,0-.1-.33l0-.05v-.1l0-.09a.38.38,0,0,0,0-.2,1.86,1.86,0,0,1-.15-.43c0-.05-.14-.14-.14-.29v-.14a1.2,1.2,0,0,1-.14-.48v-.1a.39.39,0,0,0-.1-.19v.19a4.59,4.59,0,0,0-.05,1v.19l.05.1c0,.14,0,.43,0,.48v.19c0,.39-.15,1.54-.15,2v.62c.1.82.15,1.35.15,1.54v1.44a4.67,4.67,0,0,0,.09.58V25c0,.63.1.72.1,1.44V27l0,.57c0,.48,0,1.25,0,2.26V31c0,3.26,0,5.28-.09,6v.77a2.12,2.12,0,0,1,0,.67.74.74,0,0,0-.14.34l-.1,0,0,0c-.05,0-.05.05-.05.1v.14c-.09.1-.14.15-.14.19v.05c-.1,0-.19-.09-.24-.24l-.43.15h0s-.14-.1-.29-.1l-.29.05-.14-.05c-.14,0-.24.05-.24.19H5.14L5,39.3a.32.32,0,0,0-.29.24c-.29-.19-.38-.24-.43-.24s-.05.05-.14.05-.34-.19-.39-.24-.14,0-.19,0A.31.31,0,0,1,3.31,39H3.26c-.14,0,0,.19-.19.19H3s0-.1-.09-.1h-.1l-.14.15c-.15,0-.24-.15-.39-.15H2.21s-.1.15-.15.15H2l-.29,0s-.05-.09-.1-.14-.14-.48-.14-.62a3.84,3.84,0,0,1-.24-1c0-.1,0-.15.05-.15V36.33s.05-.29.05-.43-.1-.39-.1-.53l-.05,0v-.24l-.09-.14v-.29L1,34.55A.16.16,0,0,1,1,34.41v0a2,2,0,0,1,.1-.38s0-.53-.05-1.49V31A6.19,6.19,0,0,0,1,30.14l-.14-.82v-.38c-.15-.1-.2-.34-.2-.73,0-.19-.09-.71-.09-.91a3.36,3.36,0,0,1,.09-.86v-.1a.27.27,0,0,0,.1-.24l0-.09v-.1a.36.36,0,0,1,0-.24v-.05l-.1.05v-.05c0-.43.2-1.49.2-1.68a14.51,14.51,0,0,1,.38-2.73.18.18,0,0,1,.14.19,2.39,2.39,0,0,1-.09.38h.09c.15,0,.24-.19.24-.62v-.58a3,3,0,0,0,0-.81s0,0,0-.05v-.1l0-.05s0,0,0-.09,0-.05,0-.1v-.19c0-.24-.14-1-.14-1.2v-.38c-.05,0-.05,0-.05-.05s.05,0,.05,0a2.9,2.9,0,0,0-.05-.34V15.83c-.05,0-.19.14-.24.14a.65.65,0,0,1-.05.29s0-.09,0-.24v-.19a20.31,20.31,0,0,1,.29-3.31c.05,0,.05,0,.05.05v.24a6.17,6.17,0,0,0-.05,1.1,1,1,0,0,0,.05.48.12.12,0,0,0,.14-.14.59.59,0,0,0,0-.24l-.05-.1a2.71,2.71,0,0,0,.14-.53l.05-.14c-.05-.05-.1-.1-.1-.15s0-.72,0-1,0-.81,0-1.05,0-.67,0-.87c-.05-.43-.29-2.06-.34-2.68V7c0-.14.05-.52.05-.71V6.18c-.15-1.1-.19-1.68-.19-1.73s0,0-.05-.09V4.21a1.34,1.34,0,0,1,.14-.67.27.27,0,0,0,.05-.19l.1-.19a.54.54,0,0,1,.14-.34h.1A2.65,2.65,0,0,1,2.11,3h.05s.1-.09.14-.09h.05v0a.11.11,0,0,1,.1-.1s0,0,0-.09h.09c.15,0,.43-.05.48-.05s.15,0,.19.05h.05s.1-.15.15-.19l.09-.1H4c.15,0,.48-.14.63-.14A.64.64,0,0,1,5,2.34l.34-.14h.33s0-.05.1-.05a.17.17,0,0,1,.14,0,.46.46,0,0,1,.24.1l.05-.05a.33.33,0,0,1,.19.05,1.44,1.44,0,0,1,.29.09h.19l0,0h.34l0,.05h.14l.19.1c.15,0,.19,0,.24.09l.1.1h.09v0l0,0c.05,0,.15.1.19.1L8.4,3l.14.1c.05,0,.1,0,.15.1s.05.09.09.14.05,0,.05.05h.05l.1.1,0,0,.1.1v.05c.05,0,.05,0,.1.09l0,.1c.05,0,.05,0,.1.09l.14.25c0,.14.1.09.1.14l.05.1h0v.14h0v0c0,.05.1.14.1.19s.19.19.24.33v.1l.05,0a.53.53,0,0,1,.14.38c.05,0,.15.15.15.29s.19.19.19.24l.14.29v0l.05.09v.1c0,.1.19.24.19.33v.1h0v.05l.15.43s.09.15.09.29a.26.26,0,0,1,.1.19v.1a.38.38,0,0,0,.09.29l0,0v.05c0,.05.15.24.15.39a4.3,4.3,0,0,1,.19.72s.05.33.05.38l0,0c.05.05.05.05.05.09a1.39,1.39,0,0,0,.05.48c0,.05.1.1.1.24h0V11l.05.1,0,0v.1a2,2,0,0,1,.24.34l.05,0v.1a.33.33,0,0,0,0,.19c0,.05,0,.05.05.05l.05,0,0,.05v.09c0,.39.53.87.53,1.25v.14l0,.1,0,.05v0s.15.14.15.19l1.92,4.32.09.14a.92.92,0,0,0,.15.39c.05,0,.05.19.09.24a1.72,1.72,0,0,1,.34.57l.1.19c.14.24.38.72.52,1,.05-.14.2-.48.2-.52l.19-.53c.19-.43.43-1.59.57-1.78.34-.91.77-2.06,1.3-3.45a9.26,9.26,0,0,1,.48-1.2,3.18,3.18,0,0,0,.29-.82c.53-1.49.91-2.4,1-2.74L21,9.45v0c.14-.34.62-1.35.67-1.54.34-1,.53-1.53.58-1.68s.48-1,.52-1.2.29-.57.29-.62.24-.39.34-.48A6,6,0,0,0,23.71,3c.05-.09.05-.19.1-.19s.05,0,.1.1c.24-.15.38-.29.38-.48v-.1c.05,0,.1.15.14.15s.05,0,.05-.1V2.25a.69.69,0,0,1,.15-.2.16.16,0,0,0,.14.05c.05,0,.1-.05.14-.14l.15-.1h.09l.05,0c.05,0,.05,0,.1,0a2.77,2.77,0,0,0,.29,0,.43.43,0,0,0,.24,0s0-.05,0-.1h.05s0,.1.1.1a1.76,1.76,0,0,0,.29-.24s.09.1.14.24c.14-.05.1-.24.14-.29a.39.39,0,0,1,.1.19A2.51,2.51,0,0,1,27,1.67l.09,0c.05,0,.05,0,.1,0l0,0,.05-.05.19,0c.09-.05.14-.05.19-.1s.14.1.29.1h.14v-.1h.05c0-.05,0-.05.05-.05h.05c0,.05.09.05.19.05h0V1.38A.14.14,0,0,0,28.56,1.33ZM1.1,16.69v-.33s.1.05.1.14v.34C1.15,16.84,1.1,16.79,1.1,16.69Zm.1.48v.24a.1.1,0,0,1-.1-.09l0-.1v-.14C1.2,17.08,1.2,17.13,1.2,17.17Zm0,.77.05-.05V18l.05,1.44-.05.05v-.15Zm12,14a.25.25,0,0,1-.09.19c-.05,0-.05,0-.05-.09s0,0,.05-.1Zm2-.81c0-.05-.05-.15-.1-.34l.15.43Zm.05.19,0,.09v0Zm.14.24h0Zm.1.33v0Zm1.68-.09a.23.23,0,0,1-.05.14c-.05-.05-.05-.05-.05-.09a.18.18,0,0,1,.05-.15C17.14,31.67,17.14,31.72,17.14,31.77Zm1.1-1.63c-.14,0-.19.19-.19.33v.14A4.55,4.55,0,0,0,18.24,30.14Zm.39,3.45h0v-.05l.09-.28h-.09Zm.19-.57v-.25l.05,0v-.2s0,0-.05.1h-.05c0-.05.05-.1.14-.19a3.61,3.61,0,0,1,.05-.38l-.05,0v-.24a8.17,8.17,0,0,0-.24,1.44Zm.72-.15v.24c0,.1-.05.15-.1.15H19.3c0-.2.19-.39.19-.44S19.54,32.82,19.54,32.87Zm.53.24a.17.17,0,0,0-.1,0,.42.42,0,0,0-.14,0ZM27.6,11.89a.51.51,0,0,0-.14-.24c0,.15-.05.44-.05.48v.15A.52.52,0,0,0,27.6,11.89Zm0-6s0,0-.05,0v0Zm.29,6.72c.05,0,.1-.05.1-.15s0-.05-.1-.05v0c0-.14-.05-.24-.1-.24H27.7v.15c0,.05.05.14.09.29Zm.48-.44a2,2,0,0,0,.1-.28,2.11,2.11,0,0,1-.1-.39c0-.05.1-.19.1-.24h-.2a.27.27,0,0,1-.09.24v.1c0,.19-.1.67-.1.81s.05.15.1.15Zm.1-3.36c0-.14-.1-.48-.1-.62a3.17,3.17,0,0,1,.1-.62l0,0V7.43h-.05a4.68,4.68,0,0,0-.19,1,.4.4,0,0,0,.09.24l.1,0v.09Zm-.1-2.11v0c0,.14-.1.19-.1.33s.05.1.1.15V6.85h-.05l.05,0V6.66ZM28.27,11v0ZM29,8.58,29,8.29V7.86H29V7.67c-.05,0-.15.43-.2.48s-.09-.29-.14-.29h-.05a1.91,1.91,0,0,1-.09.39v0c0,.05,0,.05,0,.05l0,.1v.05h.05l.14-.15c0,.24.05.34.2.39Zm-.34-3.36v.19a.16.16,0,0,0,.05-.14V5.12h-.05ZM29,11.27v0h-.2a2.48,2.48,0,0,0-.09.34l-.05.29c0,.14.19.09.19.14s-.05,0-.05,0v.14c.05,0,.1,0,.1,0V12l-.05-.05h.05v-.09l0-.1a.17.17,0,0,0,.05-.14c0-.1-.1-.15-.1-.24S29,11.32,29,11.27Zm-.1-5.81V5.37l-.05,0h.05l-.05,0-.05,0,.05,0Zm.38-.81c0-.05.1-.2.1-.24v-.1h-.14V4.5l-.05.1c-.05,0-.05,0-.05-.1H29c-.14,0-.14-.24-.19-.24l-.05,0,.15.14c-.1,0-.15,0-.15.2v.19c.24,0,.29-.15.34-.15s.05,0,.09,0ZM29,7s0,0,0,0,0,0,0,0,.09,0,.09,0V7s.05,0,.05,0H29ZM29,5.27v.05a.11.11,0,0,0,.1-.1l-.1-.1Zm.19-2.06v0c0,.2.05.29.1.29v0C29.33,3.3,29.28,3.21,29.23,3.21Zm.58-.49c.1,0,.14-.14.14-.38s0-.29,0-.29C29.86,2.25,29.86,2.53,29.81,2.72Zm.48,4.76V7.24h-.05s0,0,0,0,0,.24-.19.24l.1.1s-.15.24-.15.28.05.1.15.15a.63.63,0,0,1,.19-.15ZM30.1,8.63V8.39c0-.05-.05-.05-.1-.05H30v.05l.05,0a.16.16,0,0,1-.05.14v.1c0,.05,0,.09.05.09v0c.05-.05.05-.05.1-.05ZM30,7s.05.09.1.14V6.61A2.11,2.11,0,0,1,30,7Zm.48-2.4V4.45a4.94,4.94,0,0,0-.19.63C30.43,5.08,30.48,4.93,30.48,4.6Zm0,.52h-.09c-.05,0-.1.1-.1.25v.19c0,.09.05.14.1.14A4.18,4.18,0,0,1,30.48,5.12ZM31.15,11c0-.19,0-.29-.19-.29l-.09.29c0,.05.09.29.09.34S31.15,11.27,31.15,11ZM31.06,2.1a.24.24,0,0,0-.1-.19V2l.1.24Zm0,5.71v.24a.5.5,0,0,0,.19-.38.51.51,0,0,0-.19-.34Zm.53-.19-.15,0V7.43a1.6,1.6,0,0,1,.1-.34l-.1,0V6.57a.11.11,0,0,0-.09-.1c0,.24,0,.67,0,.86l0,0v.1s0,0,0,0l0,.09c-.05,0-.1.1-.1.15s.05.09.14.09h.05A.41.41,0,0,0,31.59,7.62ZM31.25,11s0,0,.05,0l.05-.09c0-.05-.05-.05-.1-.05V11Zm0,.19v0a.11.11,0,0,0,.1.1s0,0,0,0,0,0-.09-.05Zm.14-9v0c.1,0,.15,0,.2,0s0,0,0-.09L31.44,2S31.39,2.15,31.39,2.2Zm.2,4.13,0,0s0,0,0,0,0,0-.05,0V6h-.1a.42.42,0,0,0-.05.14c0,.15.05.24.15.24Zm-.15-4c0,.1,0,.15.19.15V2.34Zm.19.58c0-.2,0-.29-.19-.29v.19c0,.05.1.19.1.24a.53.53,0,0,0,.09.34Zm.29,1.34a.25.25,0,0,0-.09-.19l-.15.1v.14c0,.24.05.34.15.34A1.1,1.1,0,0,0,31.92,4.26Zm.48,6.87c0-.05,0-.05,0-.05l0-.1v-.05a.11.11,0,0,0-.1.1.17.17,0,0,0,.19.19Zm.15-5.81V5.8a.44.44,0,0,1-.15-.24,1.4,1.4,0,0,1,.1-.44S32.55,5.22,32.55,5.32ZM32.4,7.53V7.38c.05,0,.1,0,.1,0Zm.19-3.12c0,.14,0,.28,0,.38s0-.1,0-.19,0-.29,0-.34A.21.21,0,0,1,32.59,4.41Z" transform="translate(-0.53 -0.61)"/><path class="cls-1" d="M40.9,6.61s0,.24,0,.39v.14a1.46,1.46,0,0,1,.05.53l0,0V8a.16.16,0,0,1,.05.14v.58s0,.14,0,.19h0l0,.14V9.3c0,.15,0,.34,0,.39a.2.2,0,0,1,0,.14l0,.05v.72c0,.05.1.14.1.19h0c-.1,0,0,.19,0,.34v.43s.05,0,.05.09l-.05.15v2.11c-.1,2.26-.15,3.5-.15,3.79a.59.59,0,0,0,0,.29c0,.05.05.19.05.24v.14c0,.05,0,.05,0,.1v.24a.16.16,0,0,0,.05.14.21.21,0,0,0,0,.15v.29s.1.28.1.33v1.06a6.09,6.09,0,0,0,.19,1.92v0c.1.09.15.38.15.91v.05l0,.09v.15l0,0v.48a2.86,2.86,0,0,0,.09.39l-.05,0v0l.05,0a1.61,1.61,0,0,1,0,.53v.39a1.77,1.77,0,0,1,.1.38v.19a.18.18,0,0,0,0,.14,1.65,1.65,0,0,0,.1.29.18.18,0,0,1,0,.15v.14h.05c0,.05,0,.19,0,.24v.1h0l0,.05v.28c0,.1,0,.15.05.2a1,1,0,0,1,.09.33v.24a2.24,2.24,0,0,0,.1.43s0,0,0,.05a1.73,1.73,0,0,1,.1.58v.05l0,0v.24c0,.15.09.43.14.58l0,.05v.09l0,.05,0,.05c.05,0,.05,0,.05.09s0,.15,0,.15v.05c0,.05,0,.05,0,.09a.18.18,0,0,0,.05.15,1.2,1.2,0,0,1,.19.53A3.2,3.2,0,0,0,44.5,33.4s0,.1.09.1.1,0,.24.14h.05a.67.67,0,0,0,.29.1h.14a.21.21,0,0,1,.15,0h.28a.21.21,0,0,0,.15,0h0c.09-.1.38-.2.38-.39l0-.05v0c.05,0,.05,0,.05-.1v0s0,0,0,0v-.19h0v-.14c.05,0,.05,0,.05,0v-.15h0v0a.37.37,0,0,0,0-.19v0a.46.46,0,0,0,.09-.19V32a.39.39,0,0,1,0-.15c.05.05.1.05.05,0v-.09a.18.18,0,0,0,0-.15v-.14c0-.05,0-.05,0-.1v-.09l.05-.05v0c0-.05,0-.05,0-.09V31l.05-.1.14-.57h.05s0-.43,0-.58V29.7c.05,0,.05-.14.05-.19l0-.09v-.24l0-.05v-.19l.05-.05V28.6l0-.05v-.14l0-.05v-.19l0-.05V28l.05-.05v-.19a.18.18,0,0,1,0-.15l.05-.05v-.28a.38.38,0,0,0,0-.2,3.23,3.23,0,0,1,.09-.57l-.05,0a.11.11,0,0,1,.1.09s0,0,0-.09-.05-.05-.05-.1A1.17,1.17,0,0,0,48,26V26c0-.05,0-.05,0-.1v-.14l.05,0v-.43c0,.05,0,.05,0,0v-.48l0-.05a.16.16,0,0,1,.05-.14v-.34c0-.14,0-.24,0-.29s.05,0,.05-.05V23.8h0l0-.05,0-.05v0c0-.05,0-.39,0-.44v-.38h0v-.48c.05.05.05.05.05,0v-.15s0-.14,0-.19l0-.05v-1.2a6.14,6.14,0,0,1,.1-.76c.05,0,.05-.15.05-.39l-.05-.43a4.23,4.23,0,0,1,.05-.91v-.05l0-.05v-.53s.09-.52.09-.57v-.63c.05,0,.05,0,.05,0V16l0,0V14l.05,0C49,14,49,14,49,13.91v-.24c.05-.05.05-.05.05-.1v-.43a.42.42,0,0,1,0-.19h0l0,0v-.05l0,0,0-.05V12c0-.14,0-.24,0-.29v-.09a2.9,2.9,0,0,1,0-.34v-.14a.66.66,0,0,0,0-.24V9.78c0-.24,0-.33.05-.38s-.05-.19-.05-.48V8.34l.05-.05-.05,0c0-.05.05-.34.05-.48V7.33s0,0,0-.09l0,0,0-.05V6.71l0,0s0,0,0,0h0a.63.63,0,0,1,0-.43s0,.05,0,.1l0,0v.09s.09,0,.09,0c.1-.24.15-.34.19-.19a.36.36,0,0,1,0,.38l.09.2L49.58,7l.05,0V7s0,0,0,.15v.53l0,0s0,0,0,0l.14.09a1.17,1.17,0,0,1,0,.48v.48s.05.29.05.43v.2c0,.14,0,.28,0,.33s.05.05.05.1a2.84,2.84,0,0,0,0,.67l0,0v.05l0,0c0,.05,0,.05,0,.1v.1l0,0V11l.05.05,0,.05v0c0,.15.09.2.09.24s0,0,0-.14l.05,0c0-.05,0-.24,0-.38v-.1l0-.05v-.24h0l0,0v-.15c0-.14,0-.38,0-.53v0s0,0,0-.1v-.1s0-.14,0-.24h0v0c0-.2,0-.29.05-.34s-.05-.1-.05-.19.05,0,0,0v-.1c.05,0,.05,0,0,0V8.44h.05a.18.18,0,0,0-.05-.15c.05,0,.05,0,.05,0v-.1l0-.1s0,0,0,0,0,0,0-.09,0,0,0-.1l0-.05V7.72l0,0,0,0V7.24s0-.15,0-.29v0c.05,0,0-.19,0-.19a.16.16,0,0,1,.05-.14.18.18,0,0,1-.05-.15c.05,0,.05,0,.05,0v0c-.05,0-.05-.25-.05-.68V5.41c.05,0,.05,0,.05-.09V4.93a.27.27,0,0,1,0-.19s0,0,0,0V4.5l0,0h0c.05,0,.05,0,0-.09h.29c.05-.05,0-.15,0-.29.15,0,.29.19.34.19h.05s0,0,0,0,0,0,0,0a.76.76,0,0,0,.34,0s0-.24,0-.29.19.2.34.2-.15-.24-.15-.29l.15.14.14.1h.29l.14-.15V3.83h.05V3.78s0,0,0,0H53c0,.1.05.15.1.15l0,0h0l.05.05,0-.05.05.05h.19l.1,0s0-.1,0,0,0,.15,0,.1.24,0,.29,0h.1s.09,0,.14.09,0,0,.05,0l.09,0s0,0,0,.05a1.41,1.41,0,0,1,.34.19h0v0a.16.16,0,0,0,.14.05v0s0,0,.05,0h0v0s.1,0,.15.09a.25.25,0,0,1,.19.2v0c.05,0,.1.15.15.2l.14.14a.18.18,0,0,0,.05.15s0,.09.09.19l.1.14H56s0,0,0,.1,0,.09,0,.09h0c.05,0,.05,0,.05,0v.05l0,0v0l.05,0,0,0v.1l.1.05v0l0,.1c0,.14.14.1.14.14l0,.1V7c.1,0,.19.09.29.33v0H57l.19.39v0l.05.05V8s0,0,0,.14l0,.1v.09a1.4,1.4,0,0,1,.1.44v.38c0,.05-.05.38-.05.53V10s0,.15,0,.29v2.07l0,0c0,.05,0,.44,0,.48v1.83c0,.05,0,.05,0,.09v.53s0,.24,0,.29l0,.05v.24l0,0s0,.24,0,.28l0,.05v.39c-.05,0-.05.09-.05.19v.62l.05.15v.76l-.05.1.05.1c-.05,0-.05.19-.05.48a.17.17,0,0,1,0,.14v.1a2.3,2.3,0,0,1-.05.67c0,.14,0,.19-.09.14v.29a1,1,0,0,1-.1.34v.43c0-.05,0-.05,0,0l-.05.09c0,.1,0,.15,0,.2v.43l0,.14v.63l0,0v0c0,.05,0,.24,0,.29s0-.05,0,0v.1c-.15.29-.05.09-.05.57l0,.05v1.06s0,0,0,.09v.15a1,1,0,0,0-.09.48v.38l0,.1v.38c-.05.05-.05.05-.05.1v.09h0a.74.74,0,0,0,0,.34c-.05,0-.05,0-.05,0v.09l0,.1c0,.1,0,.14-.05.19v0c0,.05,0,.14,0,.29a1.32,1.32,0,0,1-.09.43c0,.05-.05.05-.05.09v.15h0v.05c-.05,0-.05,0-.05,0v.05h0l0,.1-.09.09v.1l-.05.05a.16.16,0,0,1,0,.14V29s0,0,0,0v.14l0,.05v.1c-.05.05-.05.05-.05.09v.05l0,.1a.16.16,0,0,0-.05.14c0,.15,0,.19,0,.24v.19l0,.05c-.05.14-.05.38-.1.43v.05s0,0,0,.05v0a.16.16,0,0,0-.05.14.86.86,0,0,0-.09.34v.09H55v.15l0,0c-.05,0-.05,0-.05.09a.21.21,0,0,0,0,.15v.09l0,.05,0,.1v.09l-.1.1v0l-.05.09h0v.14s0,0,0,.1l-.05,0v.09s0,0,0,0v0c0,.19-.24.63-.28.82a.16.16,0,0,1,0,.14v.05c-.05,0-.05,0-.05.1v.09s-.1,0-.1.1,0,0,0,.09-.1.2-.34.43l0,.15V35c-.05-.05-.05-.05-.05,0l.05.1a.16.16,0,0,0-.05.14,5,5,0,0,0-.38.48s-.1,0-.1.1l-.09.09V36c0,.1-.1.15-.1.1l-.09.09h-.05s-.15.24-.2.24v0c0,.05-.14,0-.19.15l0,0v.05l-.2.19c-.05,0-.05,0-.09.05s0,0,0,0l0,.1h-.05a2.24,2.24,0,0,1-.24.28h0s0,.1-.09.15l0,0s-.1,0-.1,0,0,.1,0,.1h-.15v.1l0,0h-.09v0h-.1V38h0l0,.1h-.05l0,0h-.1a3.81,3.81,0,0,1-.43.24s0,0,0,0H50s0,0-.1.1l-.09,0h-.05c-.1,0-.15,0-.19.09s0,0-.1,0h-.1a2.68,2.68,0,0,1-.72.34v0h0a.18.18,0,0,1-.15,0h0l-.19.1h0s0,0-.09,0h0v0h-.14a.18.18,0,0,0-.15.05h-.19l-.1,0s-.24.1-.28.1a2,2,0,0,1-.53,0h-.15s-.19.05-.24.05h-.67l0,0h0s0,0-.05,0l0,0h-.19l-.1,0a.35.35,0,0,0-.19,0h-.14l-.1,0h-.38l0-.05h-.1l0,.05-.28-.05h-.1s0,0-.1,0h-.14a1.27,1.27,0,0,1-.43,0,.67.67,0,0,1-.29-.1c-.1,0-.14,0-.19-.05h-.05l-.1,0h-.09s0,0,0,0H42.1v-.05H42c0,.05,0,.05-.1,0s-.14-.1-.14-.1l-.14,0h0V39h-.1s0,0,0,0h-.09v-.1s0,0-.1,0h-.14v-.05a.79.79,0,0,0-.19-.15l-.2-.09a.17.17,0,0,1-.14-.05s0-.1-.05-.1-.09,0-.09,0l-.05,0,0,0a3.24,3.24,0,0,1-.67-.48h0c-.05,0-.05,0-.1-.05l-.19-.24c-.14,0-.43-.34-.57-.38s-.1-.15-.1-.2l-.1,0s0-.1-.14-.2-.19-.24-.24-.24v-.09a.79.79,0,0,0-.19-.15s0,0,0,0l-.05-.1s-.29-.24-.29-.29,0,0-.24-.29v0l-.14-.15a2.34,2.34,0,0,0-.24-.38v0l-.05-.05a6.62,6.62,0,0,0-.38-.72v0h-.05v-.09a.89.89,0,0,1-.14-.24v0c-.05,0-.05,0-.05-.1v0l0,0-.05-.05v0l0-.05s0,0,0-.09v-.1s-.1-.19-.1-.24a5,5,0,0,0-.43-1.15.16.16,0,0,0,0-.14v0l-.05-.05.05-.1v-.09a.18.18,0,0,0,0-.15V30.9a.16.16,0,0,0,0-.14v-.1c0-.05-.05-.29-.05-.43l0-.05v0c0-.24-.14-1.25-.19-1.64v-.05c-.09,0,0-.14,0-.14h0v-.19a2.9,2.9,0,0,0-.09-.53c0-.24,0-.33-.05-.38h0v-.1c-.05,0-.05,0-.05-.05v0h0a.18.18,0,0,0,0-.15c-.05,0-.1,0-.05-.05h.05v-.48l-.05-.09v-.48l0-.1v-.24c0-.09,0-.14,0-.19h0s0-.14,0-.19v-.34a.17.17,0,0,0,0-.14v-.1c0-.14-.1-.19,0-.24h0c0-.05,0-.29,0-.34v-.81a2.24,2.24,0,0,0-.1-.43v-.1h0v-.62c0-.05.1-.43,0-.43l0-.05c.05,0,.05,0,.05-.05v-.15h0l0,0c0-.05,0-.15,0-.2l0,0v-.48l0-.15s0-.09,0-.29,0-.62,0-1c0-.05,0-.44,0-.48a.59.59,0,0,0-.2-.48c0-.05,0-.1,0-.2V16.21c0-.14.05-.48.05-.67v-.62a3.91,3.91,0,0,0,0-.39V14.2c0-.15.09-.58.09-.77v-.19a8.67,8.67,0,0,0,.1-.91l.05-.05s0,0,0-.1V11.8a3.91,3.91,0,0,0,0-.39v-.19h0v-.67H35c0-.14,0-.24,0-.38V9.78s.05-.14.05-.19v-.1l0,0v-.1l0-.1a1.82,1.82,0,0,0,0-.52l.09-.2V8.29a.64.64,0,0,1,.1-.33v0a.27.27,0,0,0,.05-.19V7.33h0V7.09l0,0s.05,0,.05-.09v0s0,0,0-.05V6.71s.14-.24.19-.29l.05,0V6.28h0s0,0,0-.1v-.1L36,6l0,0v0c0-.05,0-.14.1-.19s0-.14,0-.19,0,.05,0,0,.15-.29.39-.53h0l.15-.15h0l0,0s0,0,.1,0l0,0a.27.27,0,0,0,.19,0l.1,0h.14c.05,0,.29-.05.43-.05h.43l.05.05h.15l.24,0h0s.1,0,.15,0H39a.18.18,0,0,0,.15,0v0h.14l0,0,0,0h.05c0,.05,0,.05,0,.05l0,0h.1c.14.19.19.14.19.19l.19.1.15.24s0,0,0,.05l.15,0,.14,0a.79.79,0,0,1,.29.63ZM51.12,7H51s.1,0,.1.1v.24h0v0a.3.3,0,0,0,0,.29v0s0,0,0,0A.21.21,0,0,1,51,8l0,0v0h0V9.16h0l0,.05v.33l0,.1,0,0v.24l0,0v.2l0,.14v.38l0,.05v.39c0,.33,0,.52,0,.57v.05l-.05.05v0l.05,0c-.05,0-.1,0-.05,0l0,.05,0,0v.14l0,.05,0,.1v.19l.05.09v.24c0,.05-.05.05-.05.1V13l.05.09c0,.05,0,.05-.05.1v.1a1,1,0,0,0,.05.38V14c0,.24,0,.38.1.38l.14-.24h.1l0,0v-.86l.15,0c0-.05-.1-.14-.1-.19s.1-.1.15-.1v-.52l-.05-.05,0,0c0-.14,0-.19,0-.24l0-.05,0,0s0-.24,0-.28.1,0,.14,0v-.19s0,0,0-.1l0,0v-.09l0-.1v0l0-.05v-.19c.1,0,0-.14,0-.14s.05-.1.05-.19v-.15h0V10l0,0c-.05,0-.05,0-.05-.1l.05-.05h0s0-.14,0-.19V9.54s0,0,0-.09V9.21s0-.05,0-.15h-.05V9s-.09,0-.09,0,0,0,0-.05,0-.15,0-.15l0,.1c0,.05,0,.05.05.1,0-.1,0-.15.1-.15V8.68h0v.19l0,.1v.14a.16.16,0,0,0,.05.14l0,.1v.24h0v.19c0,.24,0,.39,0,.39s0,0,0,.09v.1h0v.19c0,.14,0,.19,0,.19s.1.15.1.19l0,.1,0,.05c0,.05,0,.05,0,.09v.48s0,0,0-.09h0v-.05l.05,0v-.09a1.43,1.43,0,0,1,0-.53l.1.09,0,0a.21.21,0,0,1,0-.15v-.09l0-.05,0,0v-.19h0l0-.1h0v-.14S52,10,52,10a.16.16,0,0,0,0-.14c0-.05,0-.38,0-.53V9.06L52,9,52,8.92V8.87L52,8.77c0-.19,0-.57,0-.72V7.77s0,0-.1,0-.05,0-.05,0v.09s0,0,0,.05V7.24a.93.93,0,0,0,0-.39V6.66h.09s.05,0,.05-.09V6.52h-.09c-.1,0-.15,0-.15,0,0-.24,0-.39-.05-.43V6a.17.17,0,0,1,0-.14V5.7l0,0V5.56c-.05,0-.05,0-.05-.1V5.32c0-.2,0-.44,0-.58l-.14,0v.43l0,0v1l-.05.1.05.14v0c-.05,0-.05,0-.05.1Zm.58,1.64v-.1a.18.18,0,0,1,0,.15l0,0Zm.19,3.65,0-.05v-.43h-.1V12c-.05.05-.05.09-.09.09a6,6,0,0,1,0,1.35c-.14.24-.09.29,0,.29h0a.25.25,0,0,0,.24,0,1.58,1.58,0,0,0-.05-.53.21.21,0,0,0,0-.15v0c0-.05,0-.05,0-.1h0l0-.14ZM51.75,8s0,0,0,0V8Zm.33-3.55c.05,0,.05,0,.05.09v0a.17.17,0,0,1,0,.14l0,0v.43l-.05,0c0,.15.05.34.05.48s-.05,0-.05,0v.19l.1,0h0v.09l0,0v.39a.27.27,0,0,1,0,.19c-.05.14-.05.19,0,.24s.1,0,.1-.1V6.42a.27.27,0,0,1,0-.19c0-.05,0-.05,0-.1V6s0,0,0-.1.19-.29.24-.33.15-.05.2-.05v-.1h.19s0-.09-.15-.19l-.09,0h0s0,0,0,0l-.05,0s0,0,0-.09,0-.1,0-.2-.09,0,0-.09-.14-.24-.19-.29,0-.14,0-.19A.39.39,0,0,0,52.08,4.41Zm.48.24s0,0,0,0v0s0,.1,0,.1.09,0,.19,0a2.07,2.07,0,0,0-.05-.38s-.19-.19-.19,0c0,0-.15-.14-.19-.09s0,0,0,0v0A.38.38,0,0,0,52.56,4.65Zm.43.28h.1c0-.09-.05-.14-.1-.09Zm0,.63h.15v-.1H53Zm0,.19a.11.11,0,0,0,.1-.1s0,0-.1,0Z" transform="translate(-0.53 -0.61)"/><path class="cls-1" d="M59.71,28.21s0,0,0,0l0-.05v-.05c0-.19.1-.81.1-1.05v-.58c0-.48,0-1,.09-1.63.05,0,.05,0,.05-.1v-.05H59.9v-.09l0-.05c0-.39,0-1.39,0-1.83a12,12,0,0,1,.19-2.4,3.24,3.24,0,0,0,0-.81c0-.39,0-1.44,0-1.68a2.23,2.23,0,0,1,0-.67c0-.34.09-.92.14-1.64s.1-1.24.14-1.58a.35.35,0,0,1,.1-.19c0-.05,0-.19,0-.39a6.46,6.46,0,0,1,.1-.91c0-.38,0-1.39,0-1.82s.19-1.35.19-1.78V8.29a19.28,19.28,0,0,1,.24-2.35c0-.05.1-.19.1-.33V5.56a.18.18,0,0,0,0-.15l0-.09c.1-.1.2-.29.29-.29.24-.19,1.2-.24,1.44-.38,0,0,.15-.15.29-.2l.1,0,.14-.1.19,0c.15,0,.77-.14,1-.14a.73.73,0,0,1,.39.09,12.43,12.43,0,0,1,3.69-.76h.15a23.76,23.76,0,0,1,5.61.62l.82.24a2.4,2.4,0,0,0,.43.14l.29,0c.33,0,1.25.43,1.44.43s.38.15.43.15h0c.48.29.72.29,1,.53,0,0,0-.05.1-.05H79c0,.05.14.14.48.33l.48.29a2.49,2.49,0,0,0,.62.58l0,0c.14.14.24.19.24.23s.24.15.48.44l.29.43c0,.19.38.67.43.91l.29,1.25s0,0,0,0c0,.24.14.77.14,1v.05s0,.09,0,.24,0,.62,0,.76v.1a10,10,0,0,1-.24,1.25,2.33,2.33,0,0,1-.14.81,6,6,0,0,0-.15.63c-.24.67-.43,1-.57,1.34l-.34.53a1.66,1.66,0,0,0-.29.58s-.19.24-.24.38c-.33.19-.81,1.06-1,1.25-.05.05-.15.29-.29.33s-.63.63-.82.82a6.26,6.26,0,0,1-.91.48l-.62.43a8.9,8.9,0,0,1-.92.53c-.62,0-1,.05-1,.14h0s-.15.05-.2.05,0,0,0,0v.1h0l-.1-.05-.09.05a3,3,0,0,0,.86.52l.72.39a14.88,14.88,0,0,1,2,1.77c0,.05.24.2.24.24a1.72,1.72,0,0,1,.38.53l.29.48c.05.05.19.39.34.43s.28.53.28.58.29.58.34.77l0,.19.09.19v.05c0,.24.34.77.34,1s.34.91.34,1.06l0,.05,0,.14a.33.33,0,0,1,0,.19.16.16,0,0,0,.05.14v.05c0,.05.19.63.48,1.68a2.86,2.86,0,0,1,.09.39,23.55,23.55,0,0,0,.68,2.73h0a2.54,2.54,0,0,0,.48,1,.79.79,0,0,1,.29.34c0,.14.48.48.48.62s0,0,.15.1l.14.1a2.21,2.21,0,0,0,.34.48v0c0,.2.48.72.48,1l.14.24c0,.2.1.2,0,.39l-.09.14a.21.21,0,0,0,0,.15v0a.24.24,0,0,1-.09.15h0c-.1,0-.24-.1-.24,0l0,0c0,.05-.09.14-.09.19l-.15.14v.1a.63.63,0,0,1,0,.24s0,0-.09,0h-.1l-.09,0h-.05a.16.16,0,0,0,0,.14s0,.1,0,.1h-.09c-.1-.1-.2,0-.29,0a1,1,0,0,0-.24-.34v.29c0,.14.05.19.09.19v0c-.14,0-.24-.1-.38,0s-.53.09-.53.14-.14-.09-.19-.09H81.6a1.17,1.17,0,0,1-.48-.05h-.19c-.1,0-.15,0-.19,0s0,.1-.1.14l0,.1c-.14-.05-.14-.24-.29-.24h-.09l-.1,0-.53-.19s-.14.09-.19.09a1.42,1.42,0,0,0-.77-.48s0,0-.09.05v.1h-.1c-.24,0-.57-.34-1-1.06,0-.05-.24-.34-.52-.77l-.39-.53a9.07,9.07,0,0,1-1.1-2.25l-.1-.43c-.19-.58-.43-1.4-.72-2.5s-.48-1.78-.53-2l0-.14v.05c-.34-1.06-.48-1.63-.53-1.78s-.24-.62-.67-1.77a8.94,8.94,0,0,0-.72-1.11l-.1-.1c-.19-.14-.67-.57-.72-.57-.24-.14-.72-.67-1-.67h-.09c-.1-.19-.63-.29-1.64-.29a4.29,4.29,0,0,1-.48-.1c-.14,0-.19,0-.24,0s-.14.15-.14.39v1.68a2.24,2.24,0,0,1-.1.43c0,.53-.14,1.92-.14,2.11a3.89,3.89,0,0,1-.19,1.2,1.31,1.31,0,0,1,0,.44c0,.33-.19,1.24-.19,1.43s-.24.49-.24,1.21c0,.43,0,1.39,0,1.58v.19a23.31,23.31,0,0,1-.19,2.74s0,.14,0,.19a.59.59,0,0,1-.19-.43.16.16,0,0,0,0,.14v.29c-.05,0-.1-.1-.1-.24s0-.19,0-.19v0l-.09.1V38l-.05-.19v-.68s.05-.24.05-.28v0a.47.47,0,0,0,.09-.29c0-.19,0-.58,0-.62v0a.9.9,0,0,0,0-.39.57.57,0,0,0-.1.34c0,.34,0,.53-.14.53h0v.05l0,.09c0,.05,0,.24,0,.29s0,.14-.1.14v.15h0l0,.05h-.09v.09l0,.05h0s0,0,0,.1l0-.05s0,0-.1,0a.35.35,0,0,1,.05.24v.24c0,.1,0,.14,0,.19s0,0-.1.05v.48l0,0-.09-.19v-.77l0-.09v-.05c0-.1,0-.15-.1-.19V37l0-.1,0,0v-.1c-.14,0-.19.19-.19.62,0,.15,0,.24,0,.24s0,0-.05,0h0v-.2a.2.2,0,0,1,0-.14c0-.05.05-.19.05-.24l0,0h0c0-.05,0-.05,0-.05l0,0,.1-.29,0,0-.1.1-.19.09V37s0,0,0,0h-.05v-.09s0-.24,0-.29a.56.56,0,0,0-.15.43v0h.1a.88.88,0,0,0,0,.38h0s.1-.09.15-.09,0,.28,0,.33v0l0,.05-.05-.05s0,0,0,0v-.24a.26.26,0,0,0-.1.19v.15s0,0,0,0h-.09s0-.2,0-.34v-.14c0-.05,0-.05,0-.05v-.1l0,.05v-.05a1,1,0,0,1-.05-.43s0,0,0-.1,0,.15-.1.15h0v-.29s-.1,0-.1.14v.2l-.09-.15v-.05s0,0,0-.09,0,0-.1.09l-.05.1s-.09,0-.09,0h0a.59.59,0,0,1,.09.19V37l0-.05s0,0,0,.05v0s0,0-.05,0h0l-.19-.15v-.19s-.14.15-.14.19h-.1c0,.24-.05.39-.1.39a.4.4,0,0,0-.09-.29v-.24c-.15,0-.24.05-.24.1s-.05,0-.05-.1-.1-.19-.19-.19,0,.09-.1.14v0l0,.05h0s0,0,0,.09V37a.16.16,0,0,0,0,.14v0H62.4a1.79,1.79,0,0,1,.05.29c-.05,0-.05-.1-.05-.19h-.1s0,0,0-.1V37l0,0-.1,0s0-.1-.1-.14l.05,0c.15,0-.05-.19-.05-.34s-.19.24-.19.77v.53c-.09,0-.14-.05-.14-.1s0-.05,0-.05v-.09l0-.1v0h0c-.05,0-.1.1-.1.24V38s-.09-.38-.28-.43a1.22,1.22,0,0,1-.1-.34V37.1c0-.05-.1-.05-.24-.05v0h0s0,0,0,0,0-.05,0-.09h-.05c0,.14-.24.14-.1,0s.05,0,.05-.14,0,0,.1,0l0-.05v-.09s0-.39,0-.53,0-.24,0-.29a.47.47,0,0,0-.09.29s0-.14,0-.38v-.2c0-.14,0-.52,0-.57s-.19.38-.19,1.1v.58a1.76,1.76,0,0,1-.1.62l-.1,0v0a.44.44,0,0,1-.14-.24v-.19a.35.35,0,0,0,0-.24s-.09,0-.09,0v0a.18.18,0,0,1,0,.14v.05h0s0,0,0,0v0c0,.15.19.24.19.44a.16.16,0,0,1-.14-.05c0,.05,0,.09,0,.24s0,0,0,.09v.15c-.1,0-.14,0-.14,0v.24l-.1.09v.05h-.1a2.75,2.75,0,0,1,0-.62s0-.2,0-.24v-.53c0-.43,0-.87.09-1.3,0,0,0-1.58.15-4.61v-.14C59.71,30.42,59.71,29.61,59.71,28.21Zm.53,4.42h-.1v.24s0,0,0,.05V33h.14l0,0h0c-.05,0-.05.15,0,.34v.14a.41.41,0,0,0-.1.29,3.91,3.91,0,0,0,0,.39.17.17,0,0,1,0,.14c.15,0,.19-.38.19-1.15l0-.68S60.29,32.63,60.24,32.63Zm.48,2.06,0,0c0-.15,0-.19,0-.19v.28Zm.09.73v-.1s0,0,0,0v.1c0,.05,0,.09,0,.09Zm1.06.52.05.15S62,36,62,35.94v-.09c0-.15,0-.48,0-.53s0-.19,0-.19S61.87,35.75,61.87,35.94Zm.77.34h0c-.05,0-.05,0-.05.1v.14l0,0H62.4l.05,0h0l.1,0h0ZM64.13,36s0,.1,0,.24,0,.15,0,.15S64.17,36,64.13,36Zm.77-.24v-.14c-.05,0-.05,0-.1,0s0,.19,0,.24S64.9,35.8,64.9,35.75Zm.09.63c0-.05.05-.2.05-.24H65l0,0v0s-.09.24-.09.28v0l.05.05,0-.1,0,0ZM65,35.32l-.05,0,0,.05,0,0s.1,0,.1-.09Zm-.1.38v.15L65,36,65,36h0v-.05s0,0,0-.09l0-.05c.09,0,0-.14,0-.24s0-.05-.1-.05v.1Zm.1-.48s0-.24,0-.24S64.94,35.22,65,35.22ZM66.29,35c-.05-.05-.05-.05-.1-.05a.7.7,0,0,0,.1.44v-.1c-.05,0-.05,0-.05,0l.09-.24Zm.24-26-.1,0h-.1s0,.14,0,.19,0,.24,0,.29v.33a2,2,0,0,0,0,.58.51.51,0,0,1,0,.24v.14c.1.24.15.34.2.34s-.1-1-.15-1.3h.1S66.53,9.21,66.53,9Zm1,5.76c0,.2.09.82.09,1v1.11l.05,1.1v.19a2,2,0,0,0,.19,1.16v0c-.05.05-.05.15,0,.15,0-.39,2.35-1.06,2.45-1.15a14.67,14.67,0,0,0,1.25-1.16l.09,0q.15-.07.15-.15c.19-.05.48-.43.91-1.05l.48-.68A7.08,7.08,0,0,0,74,13.77c.33-.68.24-.44.24-.53a.78.78,0,0,1,.14-.34l.1-.29a6.72,6.72,0,0,0,.24-.67c.14-.14.19-.43.19-.91-.05-.67-.19-1.06-.34-1.1a2.07,2.07,0,0,0-1.53-.48h-.44c-.24,0-.43-.1-.48-.1h0s0,0-.1,0c-.58-.05-1-.09-1.15-.09s-.19,0-.34,0S69,9.11,68.88,9.11c-1.15-.19-.82-.19-1.2,0a1.16,1.16,0,0,1-.39,0l0,0h-.1c0,.1,0,.15-.05.15s0-.15,0-.15h0v0c0,.05.09.43.09.48l0,.05V10h0V9.45s0,0-.05-.1l0-.1s0-.09,0-.19L66.86,9c0,.05,0,.05-.09.05s0-.05-.15-.05h0s0,.05,0,.2v.43l0,.24s.1,0,.1.09,0,0,0,.1h0c0,.1,0,.48,0,1.06h0a.37.37,0,0,1,.1.28l0,.39v.62h0l.05.05c0-.05,0-.1,0-.1s.09.05.09.1l0,0,0,0c0-.05,0-.43,0-.48,0-.34,0-.48.09-.48v.14C67.44,13.05,67.49,14.1,67.54,14.77Zm3.21,8.65h.1s.05.09.19.09v-.05s0,0,0-.09h-.15a.11.11,0,0,1-.09-.1h.05c.19,0,.28-.05.28-.09H71c-.09,0-.14,0-.19-.05s0-.05.1-.05h.28v0c0-.05-.09-.09-.24-.09l-.24-.05V23h0l-.1.1a.11.11,0,0,1,.1.1s0,0-.1,0h-.1c.05,0,.05,0,.05.05h0C70.61,23.37,70.66,23.42,70.75,23.42Zm0-.68h-.19c0,.05,0,.1.14.1l0-.05c0-.05,0-.05.1-.05Zm.53.87c.14,0,.24-.05.24-.1v-.05h-.15l0,0c0-.05,0-.05-.14-.05h0s0,0,0,.05v0l-.1.05s0,0,0,0v.05Zm.81.24s0,0,0-.05l0-.05v-.09c-.09,0-.14,0-.19-.05l0-.05c0-.1-.1-.14-.19-.14h-.15v.09h.1s0,0,.1,0l.19.24Zm.63-.53s0-.05-.1-.1l0-.09h0s-.15-.05-.2-.05-.09.1-.09.14l0,.05v.1a.38.38,0,0,0-.24-.1s0,0-.1.05a.91.91,0,0,0,.62.24v0l0-.05s0,.05.1.05l0-.05s0,0,0,0l0-.05v-.05Zm2.4,1.34c0-.09,0-.14-.15-.14h-.14c0-.15-.24-.15-.29-.19l-.09-.2c-.15,0-.24-.19-.39-.43L74,23.51a.11.11,0,0,0,.09-.09.47.47,0,0,1-.09-.2.18.18,0,0,1-.1,0,.15.15,0,0,1-.1-.05c0,.05,0,.05,0,.05h-.1v0c0,.05,0,.05-.05.05s-.24-.05-.24-.09v-.1H73.2v.14l0,.1c0,.05,0,.05,0,.05s-.19-.05-.19-.15-.15.05-.19.05.43.19.43.34c0-.05,0-.05-.1-.05s-.14.05-.14.1l0,0h0v0c.05,0,.05,0,.05,0l0-.09,0,.05s0,0,0,0,0,.1.14.1h.1l0-.1h.1l.09.05,0-.05h.1c0,.15,0,.19,0,.19V23.8l.57.38c0,.05,0,.05,0,.05l0,.05,0,0h0l.05,0,0,.05s0,0,0,.1v.09c.14,0,.24.05.38.05S75.17,24.71,75.17,24.66Zm.72,12.24h0l-.14-.52,0,0,0,.1v.1C75.7,36.81,75.74,36.9,75.89,36.9Zm.24.68c.05,0,.09.28.24.28a2.12,2.12,0,0,0-.34-.57l-.09-.1A.45.45,0,0,1,76.13,37.58Zm6.53,2.88a.11.11,0,0,0-.1-.1v.1Z" transform="translate(-0.53 -0.61)"/><path class="cls-1" d="M89.09,35.75a6.24,6.24,0,0,0-.82.15,8.89,8.89,0,0,1-1.1,0h-.39l0,.05H86.4v.1h-.05a9,9,0,0,1-1.2-.29c-.14,0-.24-.14-.24-.24h-.14c0-.14-.2-.38-.2-.43v-.05s-.09.05-.14.05v-.05a2.18,2.18,0,0,0-.29-.43c0-.39-.09-1.83-.14-2.35,0-1-.1-1.78-.15-2.64V28.55a1.7,1.7,0,0,1,.05-.62c0-.39.1-1,.24-1.83,0,0,0-.05,0-.14a14,14,0,0,0,0-1.68V22.84a15.19,15.19,0,0,1,.14-1.63,10.58,10.58,0,0,0,.1-1.2,2.34,2.34,0,0,0,0-.68c0-.33,0-1.34,0-1.68v-.38c0-.34.09-1.3.09-1.63.05-.48.1-1.2.24-2.21,0,0,0,0,0,0s0-.77,0-1.1c0,0,0-.34,0-.53,0-.62-.1-1.1-.1-1.34V9.3a2,2,0,0,1,0-.62c0-.15,0-.77.15-1.78,0-.38.05-2,.09-2.59,0-.24.2-.91.24-1.15V2.25s0,0,.1,0,.19.14.29.14a3.49,3.49,0,0,1,.48-.19,4.22,4.22,0,0,1,1.15-.53h.24c.1,0,.19-.09.29-.24.33,0,.53-.14.62-.29A6.76,6.76,0,0,1,89.18,1c.15,0,.2-.29.24-.29l.1,0c.14,0,.29.38.33.38h.2A1.05,1.05,0,0,0,90.53.9a6.14,6.14,0,0,0,.76.1c.44,0,1.49-.15,1.92-.15h.87c.24,0,.38,0,.43.05s.24.1.29.1h.67a3.26,3.26,0,0,1,.72,0,3.69,3.69,0,0,0,.72.15c.14.05.19.1.24.1l0,.09h.14s.1.05.15.1.14-.05.29-.05a4.88,4.88,0,0,1,1.43.43,1.55,1.55,0,0,1,.53.29s0,0-.09.05H99a.26.26,0,0,0,.15.19l0,0h0c0,.05-.09.05-.24.05,0,.14.29.23.34.28s.63.48.67.63l.15.29a.21.21,0,0,1-.15,0c-.09,0-.14,0-.19.15s-.33-.53-.53-.58-.19,0-.43-.09v0a.18.18,0,0,0,0,.15H99v.05s0,0,0,0h0c-.09,0-.19-.19-.33-.19s0,.1,0,.15,0,0-.1.09.24.24.24.38V4c-.24-.05-.53-.33-.72-.38s-.19.1-.19.14a.33.33,0,0,1-.19,0,.18.18,0,0,0-.15,0c0-.05,0-.05,0-.05a0,0,0,0,0-.05.05h0v0l0,0v0s0,0,0,.09.29.24.53.58a1.25,1.25,0,0,1,.24.33h.29a.94.94,0,0,1,.14.39s0,0,.1.09l.09,0v.15a.44.44,0,0,1,.34.43.39.39,0,0,0,.14-.34,4.14,4.14,0,0,1,.34.29A4.48,4.48,0,0,0,99.46,5c0-.05,0-.05.09-.05s.19.19.29.19l0-.28v0h0c.1,0,.29.43.53,1.25l.29.72s-.24-1.39-.24-1.64v0c.09,0,.19-.1.28-.1a0,0,0,0,1,0,0s0-.29.1-.62l0,0h.1s.14.43.23.62h.15v.14s0,.1,0,.1a.1.1,0,0,0,.09-.1c0-.14-.19-.43-.19-.62v0a.65.65,0,0,1,.24.58,1.34,1.34,0,0,0,.48.34s0-.15,0-.2a.56.56,0,0,0-.14-.38,1.14,1.14,0,0,1-.24-.82,2.13,2.13,0,0,0,.09-.43v0a.81.81,0,0,0,.24.1.17.17,0,0,0,.19-.19.49.49,0,0,0,0-.24s.19.38.43.91c0,0,.29.14.33.19s.15.15.15.19v.1a3.59,3.59,0,0,1,.38.86s0,0,.19,0A9,9,0,0,1,103.92,7a10.18,10.18,0,0,1,.34,2c0,.67.24,1.82.52,3.41a15.57,15.57,0,0,0,.29,2.06.17.17,0,0,1,.05.14c0,.1-.05.2-.05.29a0,0,0,0,0,.05,0,1.05,1.05,0,0,1,.14.67,7.58,7.58,0,0,0,.1,1.15s0,.2,0,.24V17s0,0,0,.1v2.06a1,1,0,0,1,0,.24c0,.05,0,.05,0,.1a11.71,11.71,0,0,1-.24,1.68v.62c0,.05-.05.19-.05.29v.09c0,.05.05.05.05.1l-.43,1.78a1,1,0,0,0,0,.43V25l0,.05a.17.17,0,0,1,0,.14s0,0,0,.05a13.2,13.2,0,0,1-.24,1.58v.34c0,.15,0,.24,0,.29s-.24.43-.28.58,0,.23,0,.23l-.1.05c-.05.15-.33.43-.33.48v.1a.16.16,0,0,1-.05.14c0,.05-.1.05-.1.1l0,.14c0,.1-.09.15-.14.15a1.11,1.11,0,0,1,.14.48,3.89,3.89,0,0,1-.48,1.15,4,4,0,0,1-.09.67l0,0,0,.05c0,.29-.29.24-.29.38l-.24.43-.09.1v0s0,0,0,.09-.1,0-.1.1a3.21,3.21,0,0,1-.52.77c0,.05,0,.05,0,.05h-.1s0,0,0,0l-.05.1-.62.43h-.09v0h-.1s-.1,0-.1,0,0,.09-.09.09l-.29.15s-.14,0-.53.19a.93.93,0,0,0-.43.24h-.14v.05h-.1v0h-.1v0a3.22,3.22,0,0,1-.76.2c0-.15,0-.2.19-.2a.37.37,0,0,0,.38-.24c0,.05,0,.05-.1.05h-.14v0a.67.67,0,0,0-.29.1h-.09a2.53,2.53,0,0,0-.63.19c0,.05-.29.05-.43.09l-1.39.48L95,36c-.24.1-.38.14-.53.19a1.73,1.73,0,0,1-.62.05H93a.16.16,0,0,0-.14-.05s-.15,0-.15-.09v0l0-.05-.1,0c-.77-.05-.86-.09-1.15-.09s-.43,0-1,0h0c-.1,0-.1-.19-.14-.19a2.47,2.47,0,0,1-.44.1h-.09a.6.6,0,0,1,.38-.1s0,0-.24,0h-.19c-.14,0-.19,0-.19-.19C89.47,35.56,89.13,35.61,89.09,35.75Zm2.2-6.14c0,.19,0,.43,0,.76l.29.1c.09,0,.14.1.19.1h0a.38.38,0,0,1,.1-.2s0,0,.1,0h.09a.65.65,0,0,1,.53-.19l.62,0A.81.81,0,0,0,93.7,30c.09-.05.19-.14.33-.24h0c.14,0,.38.05.53.05s.14,0,.19-.05v-.1s0,0,0,0a.55.55,0,0,0,.24-.15,6.47,6.47,0,0,1,.48-.57v-.15c0-.05.05-.1.19-.1v-.14c0-.05.1-.05.14-.1l0,0v-.05c0-.05,0-.1,0-.1l.19-.19a.25.25,0,0,0,.1-.24v-.09a.24.24,0,0,1,.09-.15l.15-.14s0,0,0-.05v-.1s.09,0,.09-.09a4.15,4.15,0,0,1,.34-.72c.14-.15.19-.24.19-.34v-.1s.14-.09.14-.14a1.14,1.14,0,0,0,0-.48V24.9a.16.16,0,0,1,0-.14l0-.1a4,4,0,0,0,.19-1v-.28h0l0-.1a6.89,6.89,0,0,1,0-1.15V19.91a4.1,4.1,0,0,1,.19-1.49l0-.09a2.58,2.58,0,0,1,0-.34l0,0V13.72l0-.1v-.48a11.46,11.46,0,0,0,.14-1.25l0,0c0-.15,0-.68,0-.87a.16.16,0,0,1,0-.14c0-.05,0-.29,0-.34s0-.29,0-.33V9.88h0a.18.18,0,0,1,0-.15V9.49a4.5,4.5,0,0,0-.14-1,1.56,1.56,0,0,0-.63-1.16.81.81,0,0,0-.29-.09v0H97l0-.1-.1,0c-.14,0-.52,0-.57-.1s-1.54-.52-2-.57l-.1,0a3.23,3.23,0,0,0-.76,0c-.44,0-.82-.09-1.11-.09s-.38,0-.43,0h-.82a.71.71,0,0,0-.33,0c0,.34.09.92.19,1.73a12,12,0,0,1,.19,2c0,.14,0,.53,0,.72s-.19,1-.19,1.25v.62a6.61,6.61,0,0,0,0,1.11c0,.38.14,1.24.14,1.63l.1,0a12.93,12.93,0,0,1,0,1.58c0,1,0,1.68,0,2.16l-.1,0,.1.05c-.1.91-.14,1.44-.14,1.48v1.88c0,.29,0,.72,0,.77,0,.76.2,1.48.2,2.2,0,.05,0,.2,0,.24l0,.05c0,.05,0,.1,0,.14v1.21c0,.24,0,.86,0,1,0,.43-.09.34-.09.72C91.25,29.22,91.29,29.56,91.29,29.61Zm-.52-17.72a.64.64,0,0,0,0-.24l0,.29ZM99.07,5H99s0,0,0,0v0h-.1c-.14,0-.14-.2-.19-.2s0,0,.1,0l0,0s0,0,0,0v-.1c.14.14.38.14.38.48C99.12,5.22,99.07,5.12,99.07,5Zm2-1.87L100.7,3a.25.25,0,0,0-.09-.14.15.15,0,0,1,0-.1s0-.09,0-.09h.19c0,.14.29.14.33.19v.05c.29.19.49.34.49.48v0h-.05c-.1,0-.19-.15-.24-.15s-.2,0-.2-.14Z" transform="translate(-0.53 -0.61)"/><path class="cls-2" d="M121.11,15.06a.77.77,0,0,0,.43-.09c0-.05,0-.39,0-.44.2.05,0,.39.2.39s.14,0,.09-.05a.18.18,0,0,0,0-.14V14.1a12.45,12.45,0,0,0,0-1.53c-.24,0-.1.28-.24.43-.15-.05-.05-.39-.05-.43a3.42,3.42,0,0,1,0-1l0,0c.05-.05.09-.15.05-.19s.19.38.24,1a.1.1,0,0,1,.09.1c.24-.1,0-.58.15-.86v-.68c-.1-.19-.19-.28-.24-.28s-.1.14-.2.43v-.15s0-.24,0-.28-.05-.58-.05-.72.09-.2.09-.24a6.12,6.12,0,0,0,0-1,.81.81,0,0,0,0-.24.44.44,0,0,1,.53,0c0,.24,0,.82,0,1.06.14,0,.19-.29.19-.82s.14-1.82.19-2.35v-1c0-.25.19-1.3.19-1.64a.77.77,0,0,0,.19-.43c.2.15-.14,1.06-.09,1.25l.05,0,0,.05c0,.67,0,1.48-.09,2.44V8.2c0,.05,0,.05.05.09l.09.05v.05s0,0,.05,0a5.87,5.87,0,0,0,0,1c.14,0,.24-.15.29-.15V8.63c0-.05.09-.19.09-.24V7.67c0-.14,0-.24,0-.38v-1s0,0,0,0a7.53,7.53,0,0,1,.05-1.39l-.05-.1h.05a1.77,1.77,0,0,0,0-.53V3.73s.2-.38.2-.43a3.34,3.34,0,0,0,.09-.43c.15,0,0,.24,0,.38s.14-.09.14,0-.09.58,0,.62.1-.14.19-.47l.1-.15.14-.72c.2.1,0,.38,0,.63,0,0,0,.09.1,0l.09-.24,0,.05a1.27,1.27,0,0,1-.09.82,1.58,1.58,0,0,0-.1.48v.09c-.14,0,0,.34-.1.39a.11.11,0,0,0,.1.09l0,.24s0,.1-.19.1-.1.86,0,1a.4.4,0,0,0-.09.24c-.24,0,0-1.15-.1-1.35-.19.1,0,.48-.09.72a7.32,7.32,0,0,0-.2.92,1.16,1.16,0,0,1,0-.48s0,0,0,.09-.1,0-.1-.19V6.08s0,.1,0,.2a.54.54,0,0,1,0,.29l-.1.09V7c0,.14,0,.24-.05.29s0,.19,0,.38V8l0,0V8.2a.19.19,0,0,1,0,.14c0,.24,0,.39,0,.39a1.39,1.39,0,0,1,.09.91c.15,0,.1-.19.24-.19s0-.2,0-.2-.24-.14-.19-.28.19-.05.43,0c-.14.14.14.43-.19.43,0,.14.09.38.09.43a.65.65,0,0,1-.09.29l0,.05,0,0s-.1.1,0,.1l.1,0a.17.17,0,0,1,.14.05c.05-.05.05-.1,0-.2v0l0-.05c.1,0,.15-.29.15-.43s.09-.34,0-.44c.15.15,0,.48.1.68.14,0,.1-.39.14-.44s0-.14,0-.33.24-.05.24-.19.09.14.14.43c.24-.43.19.29.14.67.05,0,.05-.24.1-.24s0-.1.14-.14c0-.24,0-.34,0-.39s0,.24,0,.63a.11.11,0,0,0,.1-.1.16.16,0,0,1,.14-.05s0-.09.05-.09V8.87s0-.1,0-.24c.09,0,.14.29.14.77a.35.35,0,0,0,.1.19s.09-.05.09-.19,0-.05-.09-.05a1.1,1.1,0,0,0,.09-.53c0-.05.24.1.29-.05a.38.38,0,0,0,0-.33V8l0,0a2.74,2.74,0,0,0,0-.43c-.05-.34-.1-.53-.05-.58l.05-.1a.38.38,0,0,0-.05-.14.27.27,0,0,1,0-.19V5.94H126s0,.1,0,.1-.09,0-.09.14-.1.1-.1.05-.14-.1-.14-.24V5.85c-.05,0-.05,0-.1,0l-.14.09c0,.05-.1.05-.1,0-.09-.24.1-.19.1-.43.14.15.19.1.24,0s0-.24-.1-.24l0-.29a.25.25,0,0,0-.14.34s0,0,0-.14V4.93c-.19.05-.24.24-.19.58l-.24-.24s0-.19.05-.39l0-.14V4.07c0-.34,0-.48,0-.53A1.26,1.26,0,0,0,125,3c0-.09,0-.14-.19-.14s.1-.19.1-.24V1.53a1,1,0,0,0-.19.52s0-.62,0-.81c0,0,0,0,.09-.05s.15-.05.2,0,.14-.19.28-.15v.44a1.27,1.27,0,0,1,0,.43c-.29.81,0,.24,0,.24s.09,0,.09,0,.15,0,.15.15v.09a.3.3,0,0,0,.14-.29c.14,0,.19.24.34.24s0-.19,0-.48,0-.38,0-1.2c.1.05.15.29.15.68h.14c0-.05,0-.1.1-.1a.81.81,0,0,0-.1.24c0,.05.15.24.15.29a3,3,0,0,0,0,.67.18.18,0,0,0,0,.14l0,.1v.09h0l0,0v.82c.15,0,.15,0,.15-.19s0-.15,0-.19,0-.2,0-.34c.24-.58.19-.48.19-.67s.05-.39.24-.39.24.34.24.77V3c0,.05,0,.05,0,.1l0,.05a3,3,0,0,1,0,.86c.1,1.2.15,1.87.15,2v.24c0,.43,0,.62,0,.67l0,.09a1.55,1.55,0,0,0,.09.34V8a2.65,2.65,0,0,0-.05.33,6.41,6.41,0,0,0,.34,2.07,1.39,1.39,0,0,1,.19.72v1.1a3.27,3.27,0,0,0,.05.77,10.57,10.57,0,0,1,.19,1.15l-.05.05v0c.05.05.05.14,0,.29s.1.14.1.19V16.5c0,.58.05,1.87.05,2.4v1.73a2,2,0,0,1-.05.62c0,.05,0,.2,0,.25a12.48,12.48,0,0,1,0,1.44l0,0a.79.79,0,0,0,0,.2.33.33,0,0,1,.05.19v.09l-.05.2v0a4.78,4.78,0,0,1,.05,1c0,.44-.05,1.49-.05,1.83V24c0,.05-.1.29-.1.34,0,.33,0,1,0,1.25,0,0,0,0,0,0s0,0,0,.05v.91c0,.82.05,2.88.05,3.7v.57l-.05,0v.77c0,.34.1,1.15.1,1.39s-.1.39-.1.53.1.29.1.34c.05.38.1.67.1.81v.1c-.05.1-.1.14-.05.19a3.89,3.89,0,0,1,0,.77c0,.05.05.1.09.19s0,.19,0,.19l0,0v.05l0,0c0,.72,0,.24,0,1.05v.24c0,.05-.1.39-.1.44s0,.14-.19.14,0-.14-.19-.14,0,.38-.15.33-.09,0-.09-.19-.1.1-.1.29c.14,0,.24,0,.24.14-.34-.09-.48-.14-.48-.19s0-.1,0,0a.11.11,0,0,1-.09.1.29.29,0,0,0-.24-.1s0,0,0,.1,0,.09-.15.09v-.09c0-.05,0-.05,0-.05h-.1a1,1,0,0,1-.24-.77h-.19c0-.24-.15-.33-.29-.29s-.1.2,0,.39.1.14,0,.19l0,0a.54.54,0,0,1,.1.33c-.2-.14-.24,0-.2.2,0,0-.14,0-.33,0s-.15-.15,0-.29c-.24-.1-.24-.19-.15-.43,0-.05.34,0,.34-.1s-.1-.19-.24-.14-.19,0-.19-.05,0-.24-.1-.38,0,.09-.19.09,0,0-.19,0,0-.14-.05-.14-.14.24-.29.24l0,.19c0,.19,0,.29,0,.34l.09.14.1.19s-.19.15-.34.2h-.14l-.05-.34c.15,0,.19-.05.15-.19l-.1-.05c-.24,0-.29-.19-.19-.34l-.19-.52,0,0c0-.05-.1-.1-.1-.15s.1-.24.1-.28,0-.24,0-.24a.38.38,0,0,0-.2-.1c0-.14,0-.19-.09-.14s.09-.1.09-.15-.14,0-.19-.09l0,.09V36s0,.1,0,.1.24.09.19.24a.09.09,0,0,1-.15,0c-.24,0-.28-.15-.33,0s0,.09,0,.19,0,0,0,.1,0,0,0,0,.09.58.09.77a3.77,3.77,0,0,1-.38-.72c-.05-.05-.05-.09-.05-.19-.24-.24-.34-.38-.29-.43s-.09,0-.09.14l.14.1v.19c0,.14,0,.24,0,.29s-.24-.05-.29-.05,0,.24.1.24-.1.1-.24.14l0,.1h-.15v.1s0,0,0,.09c-.19-.09-.14-.53-.29-.67s-.14,0-.14.14a.11.11,0,0,1-.1.1c0-.14-.05-.19-.1-.19s-.14.09-.09.38c0,.1,0,.15,0,.19a1.72,1.72,0,0,1-.62-1.15c.05,0,.09-.09.24-.09l0-.1,0-.14s0,0,0-.1a.17.17,0,0,1-.05-.14l.1-.24a.84.84,0,0,0,.38.81c.14,0,.14-.33.19-.33s.1.09.05.19H122c0,.14.29.29.29.48,0,0,0,0,0-.15v-.09h0c.05,0,.1,0,.1,0,0-.53,0-.77,0-.77s-.19-.14-.19-.19a2.89,2.89,0,0,0,0-.77s-.09-.14-.14-.19a3.32,3.32,0,0,1,0-.91c0-.05-.1-.19-.1-.24,0-.29,0-.44-.09-.44l0,0c0-.1,0-.15.09-.1l0-.1,0-.14a.08.08,0,0,0,0-.14l.1,0,0-.19c0-.1,0-.15,0-.19a2.59,2.59,0,0,1,.24-.44c0-.24,0-.38-.14-.43v-.81l-.15,0c0,.05,0,.19,0,.24-.19-.05,0-.62,0-.67h.24c0-.24-.15-.57-.15-.77-.09,0-.14.05-.14.1s0,0,0-.19l0-.05c-.05,0-.1,0-.05-.05s.05-.1,0-.14h-.09v-.34c-.05-.14.19-.19.19-.24s0-.29,0-.33-.05.24-.19.19l0-.39c-.14,0-.19.1-.19.24a.18.18,0,0,1,0,.15l0,.19s-.1-.05-.1-.14l0-.05v-.15a3.47,3.47,0,0,1-.09-.52s-.1,0-.1-.05V27a.26.26,0,0,0-.1-.24,1.65,1.65,0,0,1,0-.63l.15-.05s0,0,0,0-.14,0-.1-.05,0-.05,0-.1l0-.09c0-.05,0-.1,0-.1s0-.09.1-.09,0,0,0-.1a3.59,3.59,0,0,1-.1-.77l.05-.05v-.09l-.05-.05a1.94,1.94,0,0,1,.05-.34v-.24c-.05,0-.05,0-.05-.05v.29l.05,1V25h0l0-.05a1,1,0,0,1,0-.43c0-.15-.19-.34-.19-.39v-.62a12.93,12.93,0,0,0-.05-1.58h-2.45c-.15,0-.24,0-.29,0h-.58a9.28,9.28,0,0,1-1.77.05h0c-.05.05-.05.05-.1.05s-.09,0-.09.05l-.34.33h-.09l-.39.34c0,.24.1.87.1,1.1v.68c0,.91,0,1.87-.1,2.83v.34c0,.14,0,.24,0,.28,0,.24,0,.39,0,.43a.78.78,0,0,0-.1.49v.28l0,.15,0,.05c0,.19,0,.76-.1,1v2.4c0,.1,0,.15,0,.15s.09.14.09.29-.05.38-.09.43v.91c0,.53-.1.91-.1,1.15a.93.93,0,0,1,0,.34l-.19.77s-.1.14-.33.38v.1l0,0h-.1l-.14.15a2.56,2.56,0,0,1-1.2.33c-.44,0-.72-.19-1.25,0h-.19a2.79,2.79,0,0,1-.48.09h-.15c-.24,0-.38,0-.43,0a.47.47,0,0,1-.38-.19c-.29,0-.48,0-.53-.05l-.1,0s-.14,0-.29,0-.19-.05-.24-.1h0c-.15,0-.1.24-.24.24a2.38,2.38,0,0,1-.39-.62c-.24,0-.38-.1-.38-.24s0-.05,0-.05a.27.27,0,0,1-.19,0c0-.19-.15-.43-.15-.48s-.33-.09-.38-.14v-.48c.05-.53.1-1,.14-1.54a.79.79,0,0,1,.1-.33l-.1-.44v0s.05,0,.1-.1h.1a1.11,1.11,0,0,0,.09-.43v-.15c0-.14,0-.28,0-.33,0-.34.1-.53.1-.67v-.15c-.15,0-.2.19-.2.58v.19c-.09-.05-.14-.1-.09-.14a.9.9,0,0,0,.09-.39c0-.05,0-.33,0-.38A3.6,3.6,0,0,1,106.9,30c0-.05,0-.05-.05-.05h-.1l0,.05,0-.05a22.32,22.32,0,0,1,.33-2.78v-.05h.1l.09-.19.15-.15.14-.05v0c-.14,0-.38.29-.57.29l-.05-.1v-.15c0-.19.05-.43.09-.76.1,0,.15,0,.15.14a.16.16,0,0,1,0,.14v.15l0,0c.09,0,.14,0,.09-.1l0-.19a7.08,7.08,0,0,0,.09-1.2c0-.05,0-.1,0-.19s-.19,0-.19,0v-.34c0-.38.05-1.48.05-1.87h.1l.09.05h0v-.1c0-.19-.14-.53-.14-.67v-.1l0-.09,0-.05,0-.05s0,0,0-.09.09-.05.09-.1l0-.1c-.09-.24.1-.43-.14-.57,0-.05.1-.05.1-.1V20.1h0c0-.05,0-.19,0-.43V19l0-.1v-1a2.7,2.7,0,0,1,0-.72,5.72,5.72,0,0,0,.1-.81c0-.24,0-.87,0-1.2s.24-1.39.24-1.78a15.58,15.58,0,0,1,.19-1.73,1,1,0,0,0,.05-.43c0-.14-.05-.43-.05-.62a1,1,0,0,1,.05-.43c0-.05-.05-.29-.05-.34V8.44c.05-.63.05-1.3.1-1.92A9.62,9.62,0,0,1,108,5.41a2.49,2.49,0,0,1,.19-.72l.15-.09V4.5c-.05,0-.05,0-.05-.09l.05,0s.09,0,.09-.05.2-.34.34-.39h.1a.2.2,0,0,0,.14,0c.05,0,.24-.34.38-.39h.15a2.63,2.63,0,0,1,.72-.19c.05,0,.29-.14.33-.29h.24a1.44,1.44,0,0,1,.53-.33l.15-.05a.87.87,0,0,0,.38-.14,1,1,0,0,0,.43-.15h0a1.44,1.44,0,0,1,.48.24c.58.53.43.48.48.48l0,.1.09,0s.1,0,.1.09l.1.29c0,.19.14.38.19.53l.14.09V4.5a1.17,1.17,0,0,1,.19.62,10.74,10.74,0,0,1,.2,1.64,3.25,3.25,0,0,1,0,.57,4.09,4.09,0,0,0,.1.92v.09l0,.05c0,.14.1.14.1.29s0,.05,0,.09v.1c0,.05,0,.43,0,.58v.09l0,.05.09.24a1.13,1.13,0,0,1,.1.34v.09l0,.1,0,.05,0,.09a.18.18,0,0,1,0,.15s0,0,0,0l0,.2V11c0,.19,0,.63,0,.77V15.4a2.84,2.84,0,0,0,.19.81h1v0h.24v-.05h.2l0-.05.24-.05c.24,0,.24-.14.29-.14h.14l0-.1c.14,0,.24-.09.33,0a5.18,5.18,0,0,0,.92.1c.24,0,.33.24.72-.05a3.1,3.1,0,0,1,.81-.19l.34-.1A1,1,0,0,0,121.11,15.06Zm-.29,17.38c0,.29.24,1.2-.1,1.2a2.25,2.25,0,0,1-.1-1.2Zm.09-2.5c.15,0,.15.34.1.72L121,31c0,.1,0,.15-.09.15a3.19,3.19,0,0,0-.1-.68C120.87,30.37,120.91,30.23,120.91,29.94Zm0-1.44a1.27,1.27,0,0,1,0,.58c-.05,0-.05-.19-.05-.53.05,0,.09-.05.09-.19S120.87,28.41,120.91,28.5Zm.29-1.92a.1.1,0,0,1-.09-.09s0,0-.1,0S121.15,26.73,121.2,26.58Zm.34,4.71c-.24,0-.1.29-.1.48-.19.09,0,.48-.09.67s-.1.14-.1.19,0,.43,0,.48,0,.15.1.43c0,0,0-.14-.1-.14v-.34c0-.14,0-.24,0-.29s-.09-.33,0-.43a1.43,1.43,0,0,1,0-.28l.14-.63a5.38,5.38,0,0,1,0-.86h.15c0,.14.14.33.14.53s.1.09.1-.05a1.45,1.45,0,0,1,0,.62v.24S121.54,31.72,121.54,31.29Zm-.43-15.12s.14.09.19.09,0-.24,0-.29C121.3,16.12,121.11,16.12,121.11,16.17Zm.43,13.77s.09.1.09.34C121.58,30.28,121.54,30,121.54,29.94Zm.09,3.36c.05,0,.05.05.05.15v.38c0,.15,0,.29-.05.34A2.54,2.54,0,0,1,121.63,33.3Zm.1-.57c0,.14.1.48,0,.53s-.05-.2-.05-.63C121.68,32.63,121.68,32.73,121.73,32.73Zm.19-27.32c0-.53,0-.86.15-.91.33,0,0,1.3,0,1.35A.7.7,0,0,1,121.92,5.41Zm.29-2c.14.14.05,1-.14,1A2.21,2.21,0,0,1,122.21,3.45Zm.14,29.13a.33.33,0,0,0-.09-.19c-.05-.14-.1-.24-.15-.24s-.09.24,0,.38a.18.18,0,0,0,0,.1s0,0,.1,0S122.26,32.58,122.35,32.58Zm.1-30.09c0-.24.09-.68.29-.68.14.19-.2.58-.15.82-.09.05-.14.09-.14.14Zm.19,28.12s0,0-.14,0V31l.09.34C122.64,31.24,122.64,31.05,122.64,30.61Zm.1,5,0,0h0v0l0,0s0,0,.1,0S122.74,35.7,122.74,35.66Zm.05,1.63c-.15-.15-.2-.24-.15-.29A.21.21,0,0,1,122.79,37.29ZM123,11.56c0-.05-.1,0-.15,0h0c0-.15-.05-.2-.1-.2v.77c.19,0,.24-.14.1-.29A.27.27,0,0,0,123,11.56Zm.09,20.5c0,.09,0,.14-.09.14l-.15-.1s0,0,0,.1a.17.17,0,0,0-.05.14c0,.24.05.39.14.43s.05-.14.05-.24,0-.19.1-.19,0,.19.09.19S123.22,32.06,123.07,32.06ZM123,9.69c-.15.33-.1.52,0,.57C123,10.21,123.17,9.69,123,9.69Zm.67,2.3v-.86c-.14-.05-.14.28-.19.28s0-.14,0-.24,0-.19-.1-.19a2.87,2.87,0,0,0-.09.82,3.38,3.38,0,0,0,.09.91h.1l.14.14A4,4,0,0,0,123.65,12Zm-.34,24.63.15,0c.05,0,.05,0,0-.09Zm.34-26s0,0,0,0v-.34c0-.24-.1-.43-.15-.43s0,.1-.14.1,0,.24,0,.19a2.4,2.4,0,0,1,0,.62.2.2,0,0,0,.14-.09v.48S123.65,10.93,123.65,10.6ZM123.89,35s-.19-.05-.24-.05-.05.2-.05.53h.29ZM124,8.1c0,.05-.1.19,0,.34s0,0,0-.1-.1-.09-.14,0,.24-.19.19-.38A.16.16,0,0,1,124,8.1Zm0,3.75a5.84,5.84,0,0,0,0,.86C123.89,12.42,124.13,12.13,123.94,11.85Zm.19.24.05.24v-.05C124.18,12.18,124.18,12.13,124.13,12.09Zm.1-3.08,0,0h.1s0,.09-.14.09Zm.09-.57c-.14,0,0-.67,0-.72s.15,0,.15.24c0,0,.14,0,.19,0v.43c0,.05-.14-.14-.19-.14A.35.35,0,0,0,124.32,8.44ZM124.37,5V4.84c0-.19,0-.29-.1-.34C124.27,4.65,124.32,5,124.37,5Zm-.1,6.38a.38.38,0,0,1,.2.1C124.51,11.37,124.27,11.27,124.27,11.41Zm.1-7.15c-.05,0,0,.1,0,.1.09-.15.09-.24,0-.29C124.42,4.12,124.42,4.17,124.37,4.26Zm.77.19,0-.14v.05l0,.09S125.09,4.5,125.14,4.45Zm0,2.74h-.1v-.1h.1Zm.09-3.89c0,.05,0,.19,0,.34-.14.09-.19.19-.1.28C125.52,3.92,125.38,3.4,125.28,3.3Zm.1-.86c.05.14-.15.43.05.43C125.47,2.63,125.47,2.49,125.38,2.44Zm.09,5.76s.15-.1.2,0,0-.1,0-.24.09,0,.14.1a.64.64,0,0,1,0,.43.35.35,0,0,1-.19-.1c-.05-.05-.05-.05-.1.05C125.43,8.34,125.43,8.29,125.47,8.2Zm.34-1.39c.1,0,.14,0,.14-.1l.15-.1a1,1,0,0,1,0,.39s-.15-.15-.19-.15-.15,0-.15.15-.05,0-.05.09c-.14-.14-.14-.33,0-.67C125.86,6.42,125.71,6.71,125.81,6.81Zm.29-2.74a.11.11,0,0,1-.1.1c0-.15,0-.15-.14,0q0-.22-.15-.15s.05.29.05.48v.2c0,.62.24-.05.34-.05l.09.05C126.15,4.5,126.29,4.07,126.1,4.07Zm0-.05c0-.14,0-.29,0-.33C126,3.92,126,4.07,126.05,4ZM126.24,3s0,0-.09-.09l-.05-.05v.67l.09,0C126.24,3.3,126.19,3,126.24,3Zm.67,5.53c0-.05-.09,0-.09,0s.09.15.24.1S127.06,8.49,126.91,8.49Zm0-1.54s-.14.58.1.58C127,7.14,127,7,126.91,7Zm.48-.24v-.1s0,0,0-.09a1.55,1.55,0,0,0-.09-.34l0-.14v.67l0,0s0,0-.1,0v.43a.16.16,0,0,0,0,.14l0,0c0,.05,0,.05,0,.1s.2.14.2.19,0,.33.09.33,0-.33,0-.48ZM127.83,38a.27.27,0,0,0,0-.19v-.1l-.1-.05-.05,0c0-.15,0-.24-.09-.2,0,.39-.1.34-.15.15a.1.1,0,0,0-.09-.1v.34c-.15,0-.1.33-.15.38.15.05.15-.14.2-.14s.09.05.14.09h.1v0c0,.05,0,.05,0,.05v-.14h.2Zm-.34-28.47V8.92a.63.63,0,0,0-.1-.39,3.32,3.32,0,0,1,0,.77s0,.1-.09.15h0s0,0,0,0,0,.1,0,.24l0,0V10s0,.1,0,.15l0,.05v.09l.15.15C127.54,9.69,127.63,9.64,127.49,9.49Zm.1,1.64c-.15,0-.1-.29-.15-.29a.65.65,0,0,0,.15.81C127.54,11.37,127.54,11.17,127.59,11.13Zm0,.72c0,.14,0,.14.14.14-.05-.05-.09-.14-.05-.19s.05-.1-.09-.1Z" transform="translate(-0.53 -0.61)"/><path class="cls-2" d="M142.46,28.94c.24,0,.82-.05.87-.05a13.47,13.47,0,0,1,2.78-.29,5.49,5.49,0,0,1,2.07.43h0a.79.79,0,0,0,.58.24,2.94,2.94,0,0,0,.53.43c0,.15.62.63.67.77v.05c0,.14.14.33.14.48,0,.67-.81.29-.48.62,0,.05.2.15.24.15l.2.24.28.38v.1l.05,0v.15a.76.76,0,0,0,.15.29l.14.19a1.17,1.17,0,0,1,.14.53v.57a.36.36,0,0,1,0,.2,2.2,2.2,0,0,1-.68.38c-1,.19-1.48.1-1.72.34-.34,0-.87.43-1.25.48l-1,.14h-.39l-1,.14a3.89,3.89,0,0,1-1.49.15,2,2,0,0,1-.67-.05,22.3,22.3,0,0,0-3.12-.24h-.63a1.62,1.62,0,0,1-.58,0s-.33,0-.47,0a1.66,1.66,0,0,1-.44,0,3.69,3.69,0,0,0-1.1.19h-1.06c-.14,0-.52,0-.72,0h-.24c-.14,0-.19,0-.19.09s-.43-.29-.57-.29-.1,0-.15.1l-.19.19a.16.16,0,0,1,0-.14c0-.05,0-.15-.14-.15a.21.21,0,0,1-.15,0l-.05,0h-.14a.16.16,0,0,1-.14,0,.68.68,0,0,0-.29-.14.27.27,0,0,0-.15-.2c-.09,0-.14-.09-.14-.14-.19.1-.29.05-.57-.1h-.1c-.05,0-.1.1-.1.24h-.05s0,0,0,.05a.32.32,0,0,1-.29-.43v-.1c-.05-.14-.1-.19-.1-.24s.1-.09-.09-.28c0-.24.19-.15.24-.87a4.74,4.74,0,0,0,0-.58,2.68,2.68,0,0,0,.44-1.1v-1c0-.05-.05-.24-.05-.29s-.05,0-.05,0a10.1,10.1,0,0,0-.1-1.11l0-.14v-.43c-.05-.44-.15-1.11-.2-2v-.82a20.8,20.8,0,0,0,.15-2.49l.05-.82V22.5l-.05-.05c0-.43-.53-1.72-.58-2.16V20.2l0-.43v-1c0-1,0-1.73.05-2.21v-.1c.05,0,.05-.09.05-.19v-.19l0-1.06v-.86a.63.63,0,0,0,.15-.48,4.29,4.29,0,0,1-.1-.48.16.16,0,0,1,.05-.14v-.2a.16.16,0,0,0,.05-.14c0-.34-.24-1.39-.24-1.63V11c0-.09,0-.14.05-.19s-.05-.14-.05-.19c0-.34.24-1,.24-1.3V8.77s0-.14.09-.33V8.15c0-.05,0-.05.05-.05L131,8l-.05-.2V7.19c0-.53.19-1.11.19-1.68,0-.24,0-.86,0-1V4.36l0-.1c.15-.14.15-.77.2-.81s.33-.68.52-.82l.2-.19c.14,0,.81-.39,1-.39s.81-.29,1-.29h.09c.05,0,.1,0,.24,0a2.16,2.16,0,0,1,.63.09h.14a7.65,7.65,0,0,0,.86-.14,1.07,1.07,0,0,1,.39.09,2.13,2.13,0,0,0,.38-.09h.48a.7.7,0,0,0,.44-.1,1,1,0,0,1,.47-.09,4.14,4.14,0,0,1,1-.1h2.49a5.05,5.05,0,0,0,1,.05c.39,0,1.35-.05,1.78-.05l1.29.05h.48a1.84,1.84,0,0,1,.87.14,4.15,4.15,0,0,1,1,.34h0c.2.19.92.58,1,.72v.05H149l0,.09.05.1v0L149,3c-.05,0-.05,0-.05.1v0l.1.05c.05,0,.1.09.1.14H149v.05h.1c.09,0,0,.14,0,.14a.49.49,0,0,1,.24.48s0,0,0,.2a1.74,1.74,0,0,1-.1.76c0,.05-.05.1-.19.15l-.05,0s0,.1-.1.1,0,.15,0,.19v0c0,.15-.63.48-.63.53s.91.24.91.29v.14a.18.18,0,0,0,0,.15l0,.09-.09.15V6.9c0,.14-.05.48-.05.53a.61.61,0,0,1,.29.53,1.5,1.5,0,0,1-.53,1,.76.76,0,0,1-.58.24,16.2,16.2,0,0,0-1.87.14,16.33,16.33,0,0,1-1.63.14c-.67,0-1.25.1-1.78.1V9.54a1.52,1.52,0,0,0-.52,0h-.82a3.26,3.26,0,0,0-.72,0h-.67A15.57,15.57,0,0,0,138,9.3a5.08,5.08,0,0,0-1,0s-.43.1-.48.1a.84.84,0,0,0-.14.57c0,.19.05.77.05.91v.15a2.5,2.5,0,0,0,.14,1.15c.05,0,.05-.05.05-.1v-.24a.38.38,0,0,1,.1.2,1.07,1.07,0,0,1-.1.38c-.05,0-.05-.05-.05-.1v-.09a.16.16,0,0,0,0,.14.74.74,0,0,0,.24.39v.28c0,.05.05.1.1.24v.58c.1,0,.14-.05.1-.14A.37.37,0,0,1,137,14v.29s0,0,0,.09l2.83.29c.29,0,.67,0,1.15.1a6.73,6.73,0,0,1,1,.09,5.05,5.05,0,0,1,1.11.29h.19c.34,0,1.54.05,1.68.05a3.66,3.66,0,0,1,.86.24l.48.19h0c.05,0,.29-.24.43-.24h.05a1.82,1.82,0,0,1,.67.43l.1.05c.05.05.05.05.05.1v0h-.1c-.05,0-.05,0-.05.15v.14l.05.1c-.14,0-.43.09-.57.09,0,.15.24.34.24.39l.43.24c0,.05.09.09.14.09s.1.44.1.58c-.34.24-.53.34-.58.38-.53,0-.81.1-.86.29v0c0,.05,0,.05.05.1h.09v0c0,.1-.05.15-.14.15,0,.19.38.29.57.33h.24l0,.05v.05l-.05.1s0,0,.05,0a.38.38,0,0,1-.2.1v.14a1.72,1.72,0,0,0-.09.44l0,.24,0,0H147c0,.05,0,.05,0,.1s-.24.05-.19.14l.05,0h-.05s0,0,0,.05c0,.24.1.38.29.38h.1c-.05,0-.1,0-.24.1l-.1.05v.09h0v.05l0,.1,0,.05-.09.05v0c0,.29-1.2.34-1.44.34h-4.13a30.47,30.47,0,0,0-3.22-.63,1,1,0,0,0-.43.05v.34l0,.24c.05.24.09.86.19,1.78v.57a3.12,3.12,0,0,0,.1.43.35.35,0,0,1-.05.24,2.34,2.34,0,0,0-.05.68c.1,1,.14,1.77.14,2.3,0,.14,0,.48,0,.67s.1.05.24.05.63-.05.67-.05H139c0-.05.05-.05.19-.05a7.15,7.15,0,0,1,1.1.15l.72.19c.34,0,.58.29.87,0A1,1,0,0,0,142.46,28.94Zm-7.72-11-.15-3.26c0-.1-.05-.14-.09-.14v.14c0,.19,0,.29-.05.29v-.43c0-.05,0-.1,0-.1v-.05c0-.05,0-.05,0-.09a1.91,1.91,0,0,0,.09-.63s0-.43,0-.48V12.9c0-.14-.15-.09-.15-.14v-.19a.11.11,0,0,0-.1-.1h0c-.05,0-.1.24-.1.77,0,.19.1.91.1,1.1v.48s0,.48.09,1.35a14.33,14.33,0,0,1,0,1.63c0,.43,0,.62,0,.62a.11.11,0,0,1,.1.1l-.05.14.05.05v.05s0,0,0,.09v.34a.32.32,0,0,0,.09.24V18.18C134.69,18,134.74,17.94,134.74,17.89Zm-.1,2.88,0-.09v-.1c0-.14-.05-.33-.05-.38l.05-.1V20c0-.1-.05-.15-.14-.15V20c0,.14.05.33.05.38a.18.18,0,0,1-.05.15l-.1,0a.11.11,0,0,1,.1.1c-.15,0-.2.1-.2.24V21l.29-.14,0-.05c0-.05,0-.05.09-.05Zm-.19-13.48V7a.75.75,0,0,0-.15-.29c0,.58,0,1.3.1,2.16v.29a.67.67,0,0,0,.14.48c0-.39.24-1.06.24-1.39V8.1l-.33-.43,0-.1v0l0,0Zm.29,6.91.09.09v0a2.11,2.11,0,0,0,.1-.39s0-.33,0-.48c0-.33-.09-.57-.23-.62s-.05.19-.05.33.09.58.09.77A3.19,3.19,0,0,1,134.74,14.2Zm1.34,4.27a13.43,13.43,0,0,0,0-1.44c0-.14,0-.53-.05-1.15s-.05-1.15-.1-1.44,0-.82,0-.87a14.39,14.39,0,0,0-.15-1.58c0-.05,0-.05-.14-.05v.87h-.1v.09s0,0,0,0l-.1-.58h-.05c-.14,0-.24.1-.24.34,0,0,.05.29.05.34v.14l-.05.05s0,0,0,.09l.1.15h-.05a3.32,3.32,0,0,1,.14,1.15l-.28-.1a.72.72,0,0,1-.1.24c0,.05,0,.58.14,1.64a9.73,9.73,0,0,0,.2,1.58V16.84a10.18,10.18,0,0,1,.09-2v.87c0,.76.15,2.3.15,2.3l0,.05,0,.05v.09a.18.18,0,0,0,0,.15.11.11,0,0,0,.1.09s0-.24.14-.24v-.24c0-.62-.14-1.44-.19-2.35V15a5.61,5.61,0,0,1,.33,2.4V18.9c.15,0,.24.05.24.1h0c-.14,0-.14.19-.19.19v.19c0,.15,0,.39,0,.43s.05.2.1.2v-.2s0-.09,0-.09h.1c.05,0,.05-.19.05-.34v-.91Zm-1,1.39a.43.43,0,0,0-.15-.29c0,.05-.09.44-.09.63s0,.14.09.24A1.25,1.25,0,0,0,135.12,19.86Zm1,.05v.14s0,0,0,0l-.1-.2C136,19.86,136.08,19.86,136.08,19.91Z" transform="translate(-0.53 -0.61)"/><path class="cls-2" d="M152.25,28.21c.05,0,.05,0,.05,0l-.05-.05v-.05c0-.19.1-.81.1-1.05v-.58c0-.48.05-1,.1-1.63.05,0,.05,0,.05-.1v-.05h-.05v-.09l0-.05c0-.39-.05-1.39-.05-1.83a12.84,12.84,0,0,1,.19-2.4,3.24,3.24,0,0,0,.05-.81c0-.39-.05-1.44-.05-1.68a2.23,2.23,0,0,1,.05-.67c0-.34.1-.92.14-1.64s.1-1.24.15-1.58a.41.41,0,0,1,.09-.19.87.87,0,0,1,0-.39,6.35,6.35,0,0,1,.09-.91C153,12,153,11,153,10.6s.2-1.35.2-1.78V8.29a17.45,17.45,0,0,1,.24-2.35,1.59,1.59,0,0,0,.09-.33V5.56a.18.18,0,0,0,.05-.15l0-.09c.09-.1.19-.29.29-.29.24-.19,1.2-.24,1.44-.38,0,0,.14-.15.29-.2l.09,0,.14-.1.2,0c.14,0,.77-.14,1-.14a.7.7,0,0,1,.39.09,12.42,12.42,0,0,1,3.7-.76h.14a23.85,23.85,0,0,1,5.62.62l.81.24a2.4,2.4,0,0,0,.43.14l.29,0c.34,0,1.25.43,1.44.43a1.86,1.86,0,0,1,.43.15h0c.48.29.72.29,1.06.53.05,0,.05-.05.09-.05h.05c0,.05.15.14.48.33l.48.29a2.42,2.42,0,0,0,.63.58l0,0c.15.14.24.19.24.23s.24.15.48.44l.29.43c.05.19.39.67.43.91l.29,1.25c.05,0,.05,0,.05,0,0,.24.14.77.14,1v.05s0,.09,0,.24,0,.62,0,.76v.1a8.35,8.35,0,0,1-.24,1.25,2.12,2.12,0,0,1-.14.81,6.32,6.32,0,0,0-.14.63c-.24.67-.44,1-.58,1.34l-.34.53a1.48,1.48,0,0,0-.28.58s-.2.24-.24.38c-.34.19-.82,1.06-1.06,1.25-.05.05-.14.29-.29.33s-.62.63-.81.82a6.32,6.32,0,0,1-.92.48l-.62.43c-.53.34-.82.48-.91.53-.63,0-1,.05-1,.14h0c-.05,0-.14.05-.19.05s0,0-.05,0v.1h-.05l-.09-.05-.1.05a3,3,0,0,0,.86.52l.72.39a14.88,14.88,0,0,1,2,1.77c0,.05.24.2.24.24a1.73,1.73,0,0,1,.39.53l.28.48c.05.05.2.39.34.43s.29.53.29.58.29.58.33.77l0,.19.1.19v.05c0,.24.33.77.33,1s.34.91.34,1.06l.05.05,0,.14a.4.4,0,0,1,0,.19.16.16,0,0,0,.05.14v.05c.05.05.19.63.48,1.68a3.66,3.66,0,0,1,.1.39,24.88,24.88,0,0,0,.67,2.73h.05a2.54,2.54,0,0,0,.48,1,.87.87,0,0,1,.29.34c0,.14.48.48.48.62s0,0,.14.1l.14.1a2.21,2.21,0,0,0,.34.48v0c0,.2.48.72.48,1l.14.24c.05.2.1.2,0,.39l-.1.14a.18.18,0,0,0,0,.15v0s0,.1-.1.15h0c-.09,0-.23-.1-.23,0l0,0c0,.05-.1.14-.1.19l-.14.14v.1a.63.63,0,0,1-.05.24s0,0-.1,0h-.09l-.1,0h0a.16.16,0,0,0-.05.14s0,.1,0,.1h-.1c-.1-.1-.19,0-.29,0a.84.84,0,0,0-.24-.34v.29c0,.14.05.19.1.19v0c-.15,0-.24-.1-.39,0,0,.05-.52.09-.52.14s-.15-.09-.2-.09h-.24a1.17,1.17,0,0,1-.48-.05h-.19c-.09,0-.14,0-.19,0s-.05.1-.1.14l0,.1c-.15-.05-.15-.24-.29-.24h-.1l-.09,0-.53-.19s-.15.09-.19.09a1.5,1.5,0,0,0-.77-.48s0,0-.1.05v.1H171c-.24,0-.58-.34-1-1.06-.05-.05-.24-.34-.53-.77l-.38-.53A8.75,8.75,0,0,1,168,36.33l-.09-.43c-.2-.58-.44-1.4-.72-2.5s-.48-1.78-.53-2l-.05-.14v.05c-.34-1.06-.48-1.63-.53-1.78s-.24-.62-.67-1.77a8.94,8.94,0,0,0-.72-1.11l-.1-.1c-.19-.14-.67-.57-.72-.57-.24-.14-.72-.67-1-.67h-.1c-.1-.19-.62-.29-1.63-.29a3.84,3.84,0,0,1-.48-.1c-.15,0-.19,0-.24,0s-.15.15-.15.39v1.68a2.06,2.06,0,0,1-.09.43c0,.53-.15,1.92-.15,2.11a3.28,3.28,0,0,1-.19,1.2,1.06,1.06,0,0,1,.05.44c0,.33-.19,1.24-.19,1.43-.15.1-.24.49-.24,1.21,0,.43.05,1.39.05,1.58v.19a22.16,22.16,0,0,1-.2,2.74s0,.14,0,.19A.59.59,0,0,1,159,38a.19.19,0,0,0,0,.14v.29s-.1-.1-.1-.24,0-.19.05-.19v0l-.1.1V38l-.05-.19v-.68s.05-.24.05-.28v0a.41.41,0,0,0,.1-.29c0-.19-.05-.58-.05-.62v0c0-.19,0-.34,0-.39a.58.58,0,0,0-.09.34c0,.34-.05.53-.15.53h-.05v.05l.05.09c0,.05,0,.24,0,.29s0,.14-.1.14v.15h0l-.05.05h-.1v.09l0,.05h0c.05,0,.05,0,.05.1l-.05-.05s0,0-.1,0a.35.35,0,0,1,.05.24v.24c0,.1,0,.14,0,.19s0,0-.1.05v.48l0,0-.1-.19v-.77l-.05-.09v-.05c0-.1,0-.15-.09-.19V37l.05-.1-.05,0v-.1c-.15,0-.19.19-.19.62,0,.15,0,.24-.05.24s0,0,0,0h-.05v-.2a.17.17,0,0,1,.05-.14c0-.05,0-.19,0-.24l.05,0h0c0-.05,0-.05,0-.05l-.05,0,.09-.29,0,0-.1.1-.19.09V37s0,0-.05,0h-.05v-.09s0-.24,0-.29a.6.6,0,0,0-.14.43v0h.09a1.08,1.08,0,0,0,0,.38h0c.05,0,.1-.09.15-.09s.05.28.05.33v0l-.05.05-.05-.05s0,0,0,0v-.24a.25.25,0,0,0-.09.19v.15c-.05,0-.05,0-.05,0h-.1s0-.2,0-.34v-.14c0-.05,0-.05,0-.05v-.1l0,.05v-.05a1.24,1.24,0,0,1,0-.43s0,0,0-.1-.05.15-.1.15h0v-.29s-.1,0-.1.14v.2l-.1-.15v-.05s0,0,0-.09,0,0-.09.09l-.05.1c-.05,0-.1,0-.1,0h-.05a.7.7,0,0,1,.1.19V37l0-.05c-.05,0-.05,0-.05.05v0s0,0,0,0h0l-.2-.15v-.19s-.14.15-.14.19h-.1c0,.24,0,.39-.09.39a.39.39,0,0,0-.1-.29v-.24c-.14,0-.24.05-.24.1s0,0,0-.1-.1-.19-.2-.19-.05.09-.09.14v0l-.05.05h.05s0,0-.05.09V37a.16.16,0,0,0,.05.14v0h-.15a1.79,1.79,0,0,1,.05.29c-.05,0-.05-.1-.05-.19h-.09s0,0,0-.1V37l-.05,0-.09,0s0-.1-.1-.14l.05,0c.14,0-.05-.19-.05-.34s-.19.24-.19.77v.53c-.1,0-.15-.05-.15-.1s0-.05.05-.05v-.09l-.05-.1v0h-.05s-.09.1-.09.24V38c-.05,0-.1-.38-.29-.43a1.22,1.22,0,0,1-.1-.34V37.1c0-.05-.09-.05-.23-.05v0h-.05s0,0,0,0-.05-.05-.05-.09h-.05c0,.14-.24.14-.09,0s0,0,0-.14,0,0,.1,0l.05-.05v-.09s0-.39,0-.53,0-.24,0-.29a.41.41,0,0,0-.1.29s0-.14,0-.38v-.2c0-.14,0-.52,0-.57s-.19.38-.19,1.1v.58a1.76,1.76,0,0,1-.1.62l-.09,0v0a.41.41,0,0,1-.15-.24v-.19a.42.42,0,0,0,0-.24c-.05,0-.1,0-.1,0v0a.16.16,0,0,1,0,.14v.05h0c-.05,0-.05,0-.05,0v0c0,.15.19.24.19.44a.17.17,0,0,1-.14-.05c-.05.05-.05.09-.05.24s0,0,0,.09v.15c-.1,0-.15,0-.15,0v.24l-.1.09v.05h-.09a2.21,2.21,0,0,1,0-.62s-.05-.2-.05-.24v-.53a11.38,11.38,0,0,1,.1-1.3s.05-1.58.14-4.61v-.14C152.25,30.42,152.25,29.61,152.25,28.21Zm.53,4.42h-.09v.24s0,0,0,.05V33h.15l0,0h-.05c-.05,0-.05.15,0,.34v.14a.41.41,0,0,0-.09.29c0,.15,0,.34,0,.39a.2.2,0,0,1,0,.14c.14,0,.19-.38.19-1.15l0-.68S152.83,32.63,152.78,32.63Zm.48,2.06,0,0c0-.15,0-.19,0-.19v.28Zm.1.73v-.1s0,0-.05,0v.1c0,.05,0,.09.05.09Zm1.06.52,0,.15s.1-.05.1-.15v-.09c0-.15-.05-.48-.05-.53s.05-.19,0-.19S154.42,35.75,154.42,35.94Zm.76.34h-.05s0,0,0,.1v.14l-.05,0h-.1l.05,0h0l.09,0h.05Zm1.49-.29s0,.1,0,.24,0,.15,0,.15S156.72,36,156.67,36Zm.77-.24v-.14c-.05,0-.05,0-.1,0s0,.19,0,.24S157.44,35.8,157.44,35.75Zm.1.63c0-.05,0-.2,0-.24h0l0,0v0s-.1.24-.1.28v0l.05.05.05-.1,0,0Zm0-1.06,0,0,0,.05,0,0s.09,0,.09-.09Zm-.09.38v.15l0,.19,0,0h0v-.05s.05,0,.05-.09l-.05-.05c.1,0,0-.14,0-.24s0-.05-.09-.05v.1Zm.09-.48s0-.24,0-.24S157.49,35.22,157.58,35.22Zm1.25-.19c-.05-.05-.05-.05-.09-.05a.72.72,0,0,0,.09.44v-.1c-.05,0-.05,0-.05,0l.1-.24Zm.24-26L159,9h-.1s0,.14,0,.19,0,.24,0,.29v.33a2,2,0,0,0,.05.58.51.51,0,0,1-.05.24v.14c.1.24.14.34.19.34s-.09-1-.14-1.3H159S159.07,9.21,159.07,9Zm1,5.76c0,.2.1.82.1,1v1.11l0,1.1v.19c0,.63.05,1,.2,1.16v0c0,.05,0,.15,0,.15,0-.39,2.35-1.06,2.44-1.15a13.3,13.3,0,0,0,1.25-1.16l.1,0c.09-.05.14-.1.14-.15.19-.05.48-.43.91-1.05l.48-.68a7.08,7.08,0,0,0,.82-1.48c.34-.68.24-.44.24-.53a.94.94,0,0,1,.14-.34l.1-.29a6.72,6.72,0,0,0,.24-.67c.14-.14.19-.43.19-.91-.05-.67-.19-1.06-.33-1.1a2.11,2.11,0,0,0-1.54-.48h-.43c-.24,0-.43-.1-.48-.1h-.05s0,0-.1,0c-.57-.05-1-.09-1.15-.09s-.19,0-.33,0-1.49-.14-1.64-.14c-1.15-.19-.81-.19-1.2,0a1.1,1.1,0,0,1-.38,0l-.05,0h-.09c0,.1,0,.15,0,.15s0-.15-.05-.15h0v0c0,.05.1.43.1.48l-.05.05V10h0V9.45s0,0-.05-.1l0-.1s0-.09,0-.19L159.41,9c0,.05,0,.05-.1.05s-.05-.05-.14-.05h0s0,.05,0,.2v.43l0,.24s.1,0,.1.09,0,0,.05.1h-.05c0,.1.05.48.05,1.06h0a.37.37,0,0,1,.09.28l0,.39v.62h0l.05.05c0-.05,0-.1,0-.1s.1.05.1.1l0,0,0,0c0-.05,0-.43,0-.48,0-.34,0-.48.1-.48v.14C160,13.05,160,14.1,160.08,14.77Zm3.22,8.65h.09s.05.09.19.09v-.05s0,0,0-.09h-.14a.11.11,0,0,1-.1-.1h.05c.19,0,.29-.05.29-.09h-.19c-.1,0-.15,0-.2-.05s0-.05.1-.05h.29v0c0-.05-.1-.09-.24-.09l-.24-.05V23h-.05l-.1.1a.11.11,0,0,1,.1.1s0,0-.1,0H163c.05,0,.05,0,.05.05h0C163.15,23.37,163.2,23.42,163.3,23.42Zm0-.68h-.19c0,.05,0,.1.15.1l0-.05c0-.05,0-.05.1-.05Zm.53.87c.15,0,.24-.05.24-.1v-.05H164l.05,0c0-.05-.05-.05-.15-.05h-.05c.05,0,.05,0,.05.05v0l-.09.05c-.05,0-.05,0-.05,0v.05Zm.82.24c.05,0,.05,0,.05-.05l-.05-.05v-.09c-.1,0-.15,0-.19-.05l0-.05a.18.18,0,0,0-.19-.14h-.14v.09h.09s0,0,.1,0l.19.24Zm.62-.53c-.05,0-.05-.05-.09-.1l-.05-.09h0c-.05,0-.14-.05-.19-.05s-.1.1-.1.14l0,.05v.1a.35.35,0,0,0-.24-.1s0,0-.1.05a1,1,0,0,0,.63.24v0l.05-.05s0,.05.09.05l.05-.05c-.05,0-.05,0-.05,0l.05-.05v-.05Zm2.4,1.34a.13.13,0,0,0-.14-.14h-.15c0-.15-.24-.15-.28-.19l-.1-.2c-.14,0-.24-.19-.38-.43l-.1-.19a.11.11,0,0,0,.1-.09.55.55,0,0,1-.1-.2.18.18,0,0,1-.1,0,.14.14,0,0,1-.09-.05c0,.05,0,.05-.05.05h-.1v0c0,.05,0,.05,0,.05s-.24-.05-.24-.09v-.1h-.2v.14l0,.1c0,.05,0,.05,0,.05s-.19-.05-.19-.15-.14.05-.19.05.43.19.43.34c0-.05,0-.05-.09-.05s-.15.05-.15.1l0,0h.05v0s0,0,0,0l0-.09,0,.05s0,0,0,0,0,.1.15.1H166l0-.1H166l.1.05.05-.05h.09c0,.15,0,.19,0,.19V23.8l.58.38c0,.05,0,.05-.05.05l0,.05,0,0h.05l0,0,.05.05s0,0,0,.1v.09c.14,0,.24.05.38.05S167.71,24.71,167.71,24.66Zm.72,12.24h-.05l-.14-.52-.05,0,.05.1v.1C168.24,36.81,168.29,36.9,168.43,36.9Zm.24.68c.05,0,.1.28.24.28a1.92,1.92,0,0,0-.33-.57l-.1-.1A.45.45,0,0,1,168.67,37.58Zm6.53,2.88a.11.11,0,0,0-.1-.1v.1Z" transform="translate(-0.53 -0.61)"/></svg>