<?xml version="1.0" encoding="UTF-8"?>
<svg width="12px" height="20px" viewBox="0 0 12 20" version="1.1" xmlns="http://www.w3.org/2000/svg" xmlns:xlink="http://www.w3.org/1999/xlink">
    <title>265F1174-A629-4EC7-8D96-61D4702076A8</title>
    <g id="Page-1" stroke="none" stroke-width="1" fill="none" fill-rule="evenodd">
        <g id="28--message-fin-scène-bistro" transform="translate(-331.000000, -617.000000)" fill="#C12F38" fill-rule="nonzero">
            <g id="suivant/red" transform="translate(267.000000, 617.000000)">
                <g id="icon/back" transform="translate(70.000000, 10.000000) scale(-1, 1) translate(-70.000000, -10.000000) translate(64.000000, 0.000000)">
                    <path d="M6.5956776,8.11996515 L11.6190803,3.04356763 C11.8650667,2.79572839 12,2.45999041 12,2.10761234 C12,1.75523428 11.8650667,1.42184548 11.6190803,1.17341895 L10.8374378,0.38487515 C10.5916455,0.137035913 10.2641167,0 9.91484327,0 C9.56537567,0 9.23765271,0.136057085 8.99186049,0.383896323 L0.38078449,9.06590449 C0.134021529,9.31472255 -0.000911796985,9.6461537 0,9.99872752 C-0.000911796985,10.353259 0.134021529,10.6848859 0.38078449,10.9333125 L8.99186049,19.6161037 C9.23765271,19.8637471 9.56518152,20 9.91484327,20 C10.2641167,20 10.5916455,19.8635514 10.8374378,19.6161037 L11.6190803,18.8275599 C11.8650667,18.5801122 12,18.2496599 12,17.8972818 C12,17.5450995 11.8650667,17.2320703 11.6190803,16.9844268 L6.53898618,11.8796433 L4.96503912,10.3851515 C4.76478791,10.1950093 4.75659295,9.87853292 4.94673517,9.6782817 C4.95298594,9.67169861 4.95941483,9.66528697 4.9660147,9.65905392 L6.5956776,8.11996515 L6.5956776,8.11996515 Z" id="Path"></path>
                </g>
            </g>
        </g>
    </g>
</svg>