<?xml version="1.0" encoding="UTF-8"?>
<svg width="50px" height="50px" viewBox="0 0 50 50" version="1.1" xmlns="http://www.w3.org/2000/svg" xmlns:xlink="http://www.w3.org/1999/xlink">
    <!-- Generator: sketchtool 64 (101010) - https://sketch.com -->
    <title>E399DB79-D9F7-4710-AAC8-E50100F134BA</title>
    <desc>Created with sketchtool.</desc>
    <g id="Page-1" stroke="none" stroke-width="1" fill="none" fill-rule="evenodd">
        <g id="11--téléphone" transform="translate(-163.000000, -517.000000)">
            <g id="button/close" transform="translate(163.000000, 517.000000)">
                <circle id="Oval" fill="#C12F38" cx="25" cy="25" r="25"></circle>
                <g id="icon/close" transform="translate(15.000000, 15.000000)" fill="#FFFFFF" fill-rule="nonzero">
                    <path d="M12.2027642,10 L19.6804878,2.52146481 C19.8861789,2.31559776 19.9996748,2.04094575 20,1.74808118 C20,1.45505399 19.8865041,1.18007675 19.6804878,0.974534929 L19.0252033,0.319370366 C18.819187,0.113015481 18.5445528,0 18.2513821,0 C17.9586992,0 17.684065,0.113015481 17.4780488,0.319370366 L10.0003252,7.79741772 L2.52227642,0.319370366 C2.31658537,0.113015481 2.04178862,0 1.74878049,0 C1.45609756,0 1.18130081,0.113015481 0.975609756,0.319370366 L0.32,0.974534929 C-0.106666667,1.40122935 -0.106666667,2.09525823 0.32,2.52146481 L7.79788618,10 L0.32,17.47821 C0.114146341,17.6844022 0.00081300813,17.9590542 0.00081300813,18.2519188 C0.00081300813,18.5447834 0.114146341,18.8194354 0.32,19.0254651 L0.975447154,19.6806296 C1.18113821,19.8868219 1.45609756,20 1.74861789,20 C2.04162602,20 2.31642276,19.8868219 2.52211382,19.6806296 L10.0001626,12.2024197 L17.4778862,19.6806296 C17.6839024,19.8868219 17.9585366,20 18.2512195,20 L18.2515447,20 C18.5443902,20 18.8190244,19.8868219 19.0250407,19.6806296 L19.6803252,19.0254651 C19.8860163,18.819598 19.9995122,18.5447834 19.9995122,18.2519188 C19.9995122,17.9590542 19.8860163,17.6844022 19.6803252,17.4783726 L12.2027642,10 Z" id="Path"></path>
                </g>
            </g>
        </g>
    </g>
</svg>