<?xml version="1.0" encoding="UTF-8"?>
<svg width="65px" height="65px" viewBox="0 0 65 65" version="1.1" xmlns="http://www.w3.org/2000/svg" xmlns:xlink="http://www.w3.org/1999/xlink">
    <title>11372632-1B17-441B-92CF-BA77708FF75F</title>
    <g id="Page-1" stroke="none" stroke-width="1" fill="none" fill-rule="evenodd">
        <g id="7--appel-bf" transform="translate(-155.000000, -477.000000)">
            <g id="icon/phone/accepter" transform="translate(155.000000, 477.000000)">
                <g id="Group">
                    <circle id="Oval-Copy" fill="#4DD964" cx="32.5" cy="32.5" r="32.5"></circle>
                    <g id="icon/phone" transform="translate(20.000000, 21.000000)" fill="#FFFFFF" fill-rule="nonzero">
                        <path d="M25.4943968,20.6741716 L22.6120367,18.752429 L20.0496963,17.0445236 C19.5551944,16.7155159 18.8906281,16.8233739 18.5255661,17.2919777 L16.9400421,19.3302619 C16.5994563,19.7725613 15.9867879,19.8996653 15.4983796,19.6292583 C14.422541,19.0308085 13.1503335,18.4673465 10.3432812,15.6566887 C7.53622882,12.8460309 6.96916138,11.5774289 6.37071151,10.5015902 C6.10030459,10.013182 6.22740854,9.40051354 6.66970793,9.05997855 L8.70799214,7.47445455 C9.17654513,7.1094433 9.28445399,6.44487703 8.95544621,5.95032435 L7.29999727,3.46689704 L5.32579823,0.505573092 C4.98978272,0.00152443552 4.31714233,-0.149801879 3.79765636,0.161737362 L1.52085548,1.52763508 C0.905546432,1.89015809 0.45324325,2.47555733 0.257636215,3.16246708 C-0.364985242,5.43251414 -0.49051499,10.4401456 7.53485774,18.4655184 C15.5602305,26.4908911 20.5674049,26.3649551 22.837452,25.7422829 C23.5243617,25.5467266 24.109761,25.0944234 24.472284,24.4790636 L25.8381817,22.2023135 C26.1497717,21.6827767 25.9984454,21.0101871 25.4943968,20.6741716 Z" id="Path"></path>
                    </g>
                </g>
            </g>
        </g>
    </g>
</svg>