<?xml version="1.0" encoding="UTF-8"?>
<svg width="30px" height="32px" viewBox="0 0 30 32" version="1.1" xmlns="http://www.w3.org/2000/svg" xmlns:xlink="http://www.w3.org/1999/xlink">
    <!-- Generator: sketchtool 64 (101010) - https://sketch.com -->
    <title>D23541A3-28FC-41C9-99E4-B598159F0BCC</title>
    <desc>Created with sketchtool.</desc>
    <g id="Page-1" stroke="none" stroke-width="1" fill="none" fill-rule="evenodd">
        <g id="1---introduction" transform="translate(-172.000000, -431.000000)" fill="#FFFFFF" fill-rule="nonzero" stroke="#FFFFFF" stroke-width="0.8">
            <g id="icon/headphone" transform="translate(173.000000, 432.000000)">
                <g transform="translate(0.000000, 0.000000)" id="Path">
                    <path d="M3.51117694,21.9819184 C3.53506805,21.9851464 3.56613495,21.9580181 3.54684492,21.9314546 C3.01726582,21.2028224 1.50916663,21.3894917 2.36027296,24.5714485 C2.60278953,25.4780946 3.0308251,26.4180991 3.54240538,27.1861259 C3.96562559,27.8214802 4.92742816,28.7972232 5.73715334,28.2706397 C5.81892663,28.2174571 5.80366076,28.0580809 5.69966009,28.043837 C5.06836273,27.957354 4.54439899,28.1706808 3.71074094,26.7977651 C2.49775041,24.8000387 2.24387345,22.5325134 2.61262246,22.0178819 C2.850283,21.6862171 3.20821557,21.9409985 3.51117694,21.9819184 Z"></path>
                    <path d="M10.0968438,29.9717898 C10.5578354,29.6156684 11.1109681,29.6701976 11.4009605,29.0888998 C11.9181725,28.0521839 11.1979383,26.531597 10.6443932,25.1711356 C10.2682947,24.2468354 9.94750507,23.296894 9.61077904,22.3573683 C9.1394504,21.0421976 8.84658262,19.4977518 8.07753424,18.3159158 C7.42904321,17.3193278 6.28013257,17.1340238 5.23958122,17.6420942 C3.65313584,18.4167826 4.04262578,19.5586948 3.94203656,20.2289773 C3.85332193,20.8201511 3.50053361,21.2940121 3.16939311,21.7694666 C3.12646713,21.8310823 3.21363028,21.905022 3.26814898,21.8544772 C4.89857507,20.3430273 3.70337557,19.3247684 4.70458331,18.3319107 C4.71738786,19.1934843 5.02385037,20.0462344 5.23174068,20.8740835 C5.95120203,23.739398 6.67825669,26.3403957 8.53071309,28.5446289 C8.60556613,28.6336811 8.73967546,28.537286 8.67682294,28.4375907 C7.72598779,26.9297161 6.86372633,25.4002685 6.33496088,23.6844363 C4.67025569,18.2822706 5.04423553,18.2594083 4.82852432,18.2191243 C5.62962105,17.5439528 6.92266147,17.3150262 7.67151183,18.316543 C8.10500442,18.8963044 8.33557072,19.6118776 8.55702689,20.294237 C10.557609,26.4588289 11.0633461,26.4450605 11.2645939,27.9211527 C11.3446651,28.508285 11.2256165,29.1673648 10.6371996,29.4165051 C10.5771116,29.4419483 10.518151,29.464603 10.4601643,29.4868299 C10.2884142,29.4102079 9.54917647,29.6927136 9.07885404,29.6011539 C7.52540545,29.2986187 6.66010805,27.7548245 5.53896448,28.4821296 C5.42892203,28.5536272 6.21994863,28.3871101 6.86163883,28.7797082 C7.22343794,29.0010424 7.55872455,29.2538256 7.93767072,29.4472115 C8.60779341,29.789188 9.22162181,29.9548261 9.89335257,29.8316799 C9.87249723,29.9375244 9.98900665,30.0550926 10.0968438,29.9717898 Z"></path>
                    <path d="M1.82689325,21.9836348 C1.85030462,22.0261942 1.90476506,22.025744 1.94219452,22.0071975 C2.01105661,21.9730461 2.05270528,21.9660546 2.05642041,21.9035599 C2.05974503,21.8476964 2.04718357,21.7242459 2.05223364,21.6887322 C2.06145659,21.6238212 1.9581791,21.5977221 1.938659,21.6618712 C1.93775397,21.6648867 1.92398967,21.697356 1.91512016,21.7266414 C1.82954576,21.4608775 1.63098423,21.1507405 1.26296577,19.9084701 C0.00076106404,15.6476201 -0.172372768,9.80164519 2.29471626,6.10109696 C5.56736136,1.19229469 11.6169025,-0.0125398232 17.4592547,0.507375232 C21.4190015,0.859747209 24.936047,3.58782151 26.5887905,7.13820022 C29.1506664,12.6415526 27.6810098,16.1172986 26.9126966,18.9938603 C27.0740408,15.36524 27.136395,11.5357136 24.9884436,8.45227958 C23.1811467,5.85780243 20.2757274,4.00174963 17.1913386,3.34396359 C14.0991267,2.68451397 10.6289595,2.92563811 7.79125511,4.3877743 C1.64456429,7.55475476 0.445061458,17.1326702 2.60966834,21.7002041 C2.62644554,21.7355481 2.68141469,21.7091674 2.67134351,21.6732312 C0.624393748,14.3765435 3.12252142,7.93846934 6.86477525,5.35627571 C9.3917433,3.61268179 12.7135241,3.15264313 15.7134499,3.50321067 C18.8858674,3.87393059 21.7704919,5.35926347 23.8947074,7.74784733 C26.908934,11.1372323 26.559227,15.7464736 26.6677237,19.9906023 C26.5358017,20.5857054 26.4352266,21.1867829 26.3910644,21.7987967 C26.3865949,21.7807304 26.3788715,21.7632264 26.3636216,21.7487679 C25.6254478,21.0477448 26.110048,20.2822066 25.8743537,19.4302244 C25.6646027,18.6720702 24.9540422,18.2365801 24.3327109,17.8319535 C23.7280722,17.438262 22.8627008,16.9906812 22.2369846,17.5865451 C21.6830148,18.11406 21.4910028,18.9649433 21.2073559,19.6453337 C20.3460879,21.7113666 19.334423,23.7231708 18.4227399,25.7673312 C17.8704538,27.0056198 17.3694588,28.6725503 19.003827,29.2510522 C20.0136981,29.6085003 21.3418192,29.5954468 22.3067228,28.7647725 C22.84805,28.2988045 22.8495171,27.9822775 23.7774118,28.1174424 C23.8511386,28.1281813 23.867151,28.0203449 23.8030435,27.994837 C22.4892325,27.4723151 22.4296432,29.0008551 20.5939752,29.1671444 C22.470702,27.8607284 23.9988818,25.0494044 24.6311268,22.7806287 C24.8370015,22.0419792 25.0694141,21.2491287 25.0359165,20.476882 C25.0331435,20.4129015 24.942782,20.3798687 24.9176023,20.4506421 C24.4798388,21.6815941 24.4910317,23.222929 23.3191502,25.323724 C22.5498566,26.7028541 21.6446235,28.0360156 20.5399945,29.1713721 C19.8707987,29.2198897 18.9477883,29.1174816 18.4493751,28.6200694 C17.4599442,27.6325966 18.8865372,25.5911088 19.6801692,23.6714784 C20.0768959,22.7118849 20.5064412,21.766609 20.9490857,20.8272521 C21.3056111,20.0707049 21.5869671,19.284309 21.9416535,18.5290861 C22.5622871,17.207453 23.2024954,17.4606517 24.4131147,18.2917105 C25.5690892,19.0852721 25.6008857,19.381245 25.5640276,20.5182292 C25.5449026,21.1087098 25.6275418,21.7188349 26.2501454,21.9402858 C26.3132633,21.9627217 26.3671583,21.9207534 26.3868765,21.8667786 C26.3810767,21.9558722 26.3737206,22.0446553 26.3704678,22.1342557 C26.3682614,22.1949379 26.4320572,22.2206156 26.4803505,22.2055082 C26.9365866,22.336584 27.3426301,22.3261003 27.1148087,23.6386696 C27.0172326,24.2006823 26.8397057,24.7500409 26.6513428,25.2875892 C26.4331048,25.910313 26.201428,26.5417749 25.8598686,27.1095091 C25.6181485,27.5112333 25.3185448,27.9114914 24.9065693,28.1549545 C24.4727527,28.4113557 24.043971,28.3486994 23.5698394,28.3861295 C23.4831271,28.3929501 23.4656708,28.5014918 23.5361448,28.5439104 C24.3730547,29.0478615 25.3703747,28.3482203 25.8729678,27.6974522 C26.4394991,26.9639043 26.784623,26.077056 27.0970419,25.2133201 C27.3641955,24.4748115 27.6651573,23.6132737 27.5805378,22.8158861 C27.5253137,22.2955866 27.0842545,21.7684677 26.5597635,22.0002337 C26.9954482,19.6589726 27.9010487,17.4279723 28.2733883,15.0763105 C29.1866844,9.30847335 25.8231773,2.18055941 19.3014491,0.427834812 C17.447684,-0.0703670404 15.423309,-0.0481851248 13.5201046,0.0722499546 C4.09050742,0.668806564 -0.750944095,6.42328196 0.0947808456,15.579278 C0.293242716,17.7277802 0.776088497,20.0747629 1.82689325,21.9836348 Z"></path>
                </g>
            </g>
        </g>
    </g>
</svg>