<?xml version="1.0" encoding="UTF-8"?>
<svg width="29px" height="25px" viewBox="0 0 29 25" version="1.1" xmlns="http://www.w3.org/2000/svg" xmlns:xlink="http://www.w3.org/1999/xlink">
    <title>37E359E1-4EEF-4E66-8E82-B44BB123749C</title>
    <g id="Page-1" stroke="none" stroke-width="1" fill="none" fill-rule="evenodd">
        <g id="24--instagram" transform="translate(-32.000000, -474.000000)" fill="#FFFFFF" fill-rule="nonzero">
            <g id="Post" transform="translate(32.000000, 83.000000)">
                <g id="icon/heart/empty" transform="translate(0.000000, 391.000000)">
                    <path d="M14.1666667,25 L12.5250437,23.8326848 C7.40704251,20.233463 1.00149391,15.7911803 0.132399378,10.5706874 C-0.318242232,7.78210117 0.389908869,4.99351492 2.12809794,2.91828794 C3.67315489,1.07003891 5.86198556,0 8.08300493,0 C10.336213,0 12.4606663,1.03761349 14.1666667,2.98313878 C15.872667,1.03761349 17.9971204,0 20.2503284,0 C22.5035365,0 24.6601784,1.07003891 26.2052354,2.91828794 C27.9434245,4.99351492 28.6515756,7.78210117 28.200934,10.5706874 C27.3318394,15.7911803 20.9584795,20.233463 15.8082897,23.8326848 L14.1666667,25 Z M8.11519362,2.59403372 C6.63451404,2.59403372 5.18602315,3.307393 4.1237965,4.57198444 C2.86843773,6.06355383 2.35341874,8.07392996 2.70749429,10.1167315 C3.41564539,14.2347601 9.27398633,18.3527886 14.0057232,21.692607 L14.1988554,21.8223087 L14.3919875,21.692607 C19.1237244,18.385214 25.014254,14.2671855 25.6902164,10.1167315 C26.044292,8.07392996 25.529273,6.06355383 24.2739142,4.57198444 C23.2116876,3.307393 21.7631967,2.59403372 20.2825171,2.59403372 C18.3833846,2.59403372 16.6773842,3.72892348 15.2932707,5.83657588 L14.1666667,7.49027237 L13.10444,5.83657588 C11.7525152,3.7613489 9.94994874,2.59403372 8.11519362,2.59403372 Z" id="Shape"></path>
                </g>
            </g>
        </g>
    </g>
</svg>