<?xml version="1.0" encoding="UTF-8"?>
<svg width="14px" height="22px" viewBox="0 0 14 22" version="1.1" xmlns="http://www.w3.org/2000/svg" xmlns:xlink="http://www.w3.org/1999/xlink">
    <title>9F26AB7D-915A-4608-869C-6F08C2E57468</title>
    <g id="Page-1" stroke="none" stroke-width="1" fill="none" fill-rule="evenodd">
        <g id="25--enregistrement-bistro" transform="translate(-309.000000, -321.000000)" fill="#0A0A0A" fill-rule="nonzero">
            <g id="Group" transform="translate(32.000000, 237.000000)">
                <g id="enregistrement" transform="translate(0.000000, 66.000000)">
                    <g id="icon/vocal/black" transform="translate(277.000000, 18.000000)">
                        <path d="M7,0 C4.68530804,0 2.8,1.7956 2.8,4 L2.8,10.6666667 C2.8,12.8712 4.68530804,14.6666667 7,14.6666667 C9.31469196,14.6666667 11.2,12.8712 11.2,10.6666667 L11.2,4 C11.2,1.7956 9.31469196,0 7,0 Z M0,11 C0,14.5217348 2.77893378,17.3605287 6.3,17.7045753 L6.3,20.5764001 L6.3,20.5983085 L3.5,20.5983085 L3.5,22 L10.5,22 L10.5,20.5983085 L7.7,20.5983085 L7.7,20.5764001 L7.7,17.7045753 C11.2210672,17.3605287 14,14.5217348 14,11 L12.6,11 C12.6,13.9743896 10.1284344,16.3713256 7,16.3713256 C3.8715649,16.3713256 1.4,13.9743896 1.4,11 L0,11 Z" id="Shape"></path>
                    </g>
                </g>
            </g>
        </g>
    </g>
</svg>