<?xml version="1.0" encoding="UTF-8"?>
<svg width="16px" height="18px" viewBox="0 0 16 18" version="1.1" xmlns="http://www.w3.org/2000/svg" xmlns:xlink="http://www.w3.org/1999/xlink">
    <title>icon/pause</title>
    <g id="icon/pause" stroke="none" stroke-width="1" fill="none" fill-rule="evenodd">
        <path d="M4.95794786,-2.30926389e-14 L0.738015139,-2.30926389e-14 C0.340622372,-2.30926389e-14 4.30766534e-13,0.31875 4.30766534e-13,0.73125 L4.30766534e-13,17.1 C4.30766534e-13,17.49375 0.321698907,17.83125 0.738015139,17.83125 L4.93902439,17.83125 C5.33641716,17.83125 5.67703953,17.5125 5.67703953,17.1 L5.67703953,0.73125 C5.67703953,0.31875 5.35534062,-2.30926389e-14 4.95794786,-2.30926389e-14 Z" id="Path" fill="#FFFFFF" fill-rule="nonzero"></path>
        <path d="M14.6278385,-2.30926389e-14 L10.4079058,-2.30926389e-14 C10.010513,-2.30926389e-14 9.66989066,0.31875 9.66989066,0.73125 L9.66989066,17.1 C9.66989066,17.49375 9.99158957,17.83125 10.4079058,17.83125 L14.6089151,17.83125 C15.0063078,17.83125 15.3469302,17.5125 15.3469302,17.1 L15.3469302,0.73125 C15.3469302,0.31875 15.0252313,-2.30926389e-14 14.6278385,-2.30926389e-14 Z" id="Path" fill="#FFFFFF" fill-rule="nonzero"></path>
    </g>
</svg>