<?xml version="1.0" encoding="UTF-8"?>
<svg width="29px" height="20px" viewBox="0 0 29 20" version="1.1" xmlns="http://www.w3.org/2000/svg" xmlns:xlink="http://www.w3.org/1999/xlink">
    <!-- Generator: sketchtool 64 (101010) - https://sketch.com -->
    <title>6D85FFD4-1596-4577-992D-EC1FD5752FCD</title>
    <desc>Created with sketchtool.</desc>
    <g id="Page-1" stroke="none" stroke-width="1" fill="none" fill-rule="evenodd">
        <g id="33--map-commissariat" transform="translate(-32.000000, -23.000000)" fill="#C12F38" fill-rule="nonzero">
            <g id="arrow/back/red" transform="translate(31.999969, 23.000000)">
                <path d="M27.6509574,8.111743 L27.6884208,8.11996515 L6.62871347,8.11996515 L11.6772988,3.04356763 C11.9245184,2.79572839 12.0601281,2.45999041 12.0601281,2.10761234 C12.0601281,1.75523428 11.9245184,1.42184548 11.6772988,1.17341895 L10.8917379,0.38487515 C10.6447135,0.137035913 10.3155427,0 9.96451835,0 C9.61329884,0 9.28393299,0.136057085 9.0369086,0.383896323 L0.382664694,9.06590449 C0.134664694,9.31472255 -0.000945062037,9.6461537 3.01980663e-13,9.99872752 C-0.000945062037,10.353259 0.134664694,10.6848859 0.382664694,10.9333125 L9.0369086,19.6161037 C9.28393299,19.8637471 9.61310372,20 9.96451835,20 C10.3155427,20 10.6447135,19.8635514 10.8917379,19.6161037 L11.6772988,18.8275599 C11.9245184,18.5801122 12.0601281,18.2496599 12.0601281,17.8972818 C12.0601281,17.5450995 11.9245184,17.2320703 11.6772988,16.9844268 L6.57173786,11.8796433 L27.6689086,11.8796433 C28.3922257,11.8796433 29.0000305,11.2541723 29.0000305,10.5288607 L29.0000305,9.41358417 C29.0000305,8.68827266 28.3742745,8.111743 27.6509574,8.111743 Z" id="Path"></path>
            </g>
        </g>
    </g>
</svg>