<?xml version="1.0" encoding="UTF-8"?>
<svg width="80px" height="80px" viewBox="0 0 80 80" version="1.1" xmlns="http://www.w3.org/2000/svg" xmlns:xlink="http://www.w3.org/1999/xlink">
    <!-- Generator: sketchtool 64 (101010) - https://sketch.com -->
    <title>B589F29D-8441-49FB-A14B-265DCE2238D5</title>
    <desc>Created with sketchtool.</desc>
    <g id="Page-1" stroke="none" stroke-width="1" fill="none" fill-rule="evenodd">
        <g id="11--téléphone" transform="translate(-70.000000, -230.000000)">
            <g id="button/files" transform="translate(70.000000, 230.000000)">
                <rect id="Rectangle" fill="#FAFAFA" x="0" y="0" width="80" height="80" rx="40"></rect>
                <g id="icon/files" transform="translate(23.296703, 20.219780)" fill="#0A0A0A" fill-rule="nonzero">
                    <path d="M32.419891,0 L5.70689814,0 C4.93041506,0 4.30095115,0.632564718 4.30095115,1.41287284 L4.30095115,5.65149137 L1.48905716,5.65149137 C0.712574077,5.65149137 0.0831101671,6.28405608 0.0831101671,7.06436421 L0.0831101671,38.1475667 C0.0831101671,38.9278748 0.712574077,39.5604396 1.48905716,39.5604396 L26.7961031,39.5604396 C27.5725861,39.5604396 28.2020501,38.9278748 28.2020501,38.1475667 L28.2020501,36.7346939 L32.419891,36.7346939 C33.1963741,36.7346939 33.825838,36.1021292 33.825838,35.321821 L33.825838,1.41287284 C33.825838,0.632564718 33.1963741,0 32.419891,0 Z M21.1723151,32.4960754 L7.11284514,32.4960754 C6.33636205,32.4960754 5.70689814,31.8635106 5.70689814,31.0832025 C5.70689814,30.3028944 6.33636205,29.6703297 7.11284514,29.6703297 L21.1723151,29.6703297 C21.9487982,29.6703297 22.5782621,30.3028944 22.5782621,31.0832025 C22.5782621,31.8635106 21.9487982,32.4960754 21.1723151,32.4960754 Z M21.1723151,26.844584 L7.11284514,26.844584 C6.33636205,26.844584 5.70689814,26.2120193 5.70689814,25.4317111 C5.70689814,24.651403 6.33636205,24.0188383 7.11284514,24.0188383 L21.1723151,24.0188383 C21.9487982,24.0188383 22.5782621,24.651403 22.5782621,25.4317111 C22.5782621,26.2120193 21.9487982,26.844584 21.1723151,26.844584 Z M21.1723151,21.1930926 L7.11284514,21.1930926 C6.33636205,21.1930926 5.70689814,20.5605279 5.70689814,19.7802198 C5.70689814,18.9999117 6.33636205,18.3673469 7.11284514,18.3673469 L21.1723151,18.3673469 C21.9487982,18.3673469 22.5782621,18.9999117 22.5782621,19.7802198 C22.5782621,20.5605279 21.9487982,21.1930926 21.1723151,21.1930926 Z M21.1723151,12.7158556 L21.1723151,10.4750392 L23.402147,12.7158556 L21.1723151,12.7158556 Z M31.013944,33.9089482 L28.2020501,33.9089482 L28.2020501,14.1287284 C28.2001365,13.7537193 28.0516908,13.3944768 27.7887016,13.1284144 L20.7589667,6.06405024 C20.4944485,5.80148415 20.138165,5.65340021 19.7663681,5.65149137 L7.11284514,5.65149137 L7.11284514,2.82574568 L31.013944,2.82574568 L31.013944,33.9089482 Z" id="Shape"></path>
                </g>
            </g>
        </g>
    </g>
</svg>