<?xml version="1.0" encoding="UTF-8"?>
<svg width="80px" height="80px" viewBox="0 0 80 80" version="1.1" xmlns="http://www.w3.org/2000/svg" xmlns:xlink="http://www.w3.org/1999/xlink">
    <!-- Generator: sketchtool 64 (101010) - https://sketch.com -->
    <title>5622DD8B-6B97-4B92-B1BF-6F4D2FF05176</title>
    <desc>Created with sketchtool.</desc>
    <g id="Page-1" stroke="none" stroke-width="1" fill="none" fill-rule="evenodd">
        <g id="11--téléphone" transform="translate(-225.000000, -230.000000)">
            <g id="button/instagram" transform="translate(225.000000, 230.000000)">
                <rect id="Rectangle-Copy" fill="#ffffff" x="0" y="0" width="80" height="80" rx="40"></rect>
                <g id="icon/instagram" transform="translate(20.219780, 20.219780)" fill="#000000" fill-rule="nonzero">
                    <path d="M30.5494505,10.5494505 C29.7017582,10.5494505 29.010989,9.85868132 29.010989,9.01098901 L29.010989,5.93406593 C29.010989,5.08637363 29.7017582,4.3956044 30.5494505,4.3956044 L33.6263736,4.3956044 C34.4740659,4.3956044 35.1648352,5.08637363 35.1648352,5.93406593 L35.1648352,9.01098901 C35.1648352,9.85868132 34.4740659,10.5494505 33.6263736,10.5494505 L30.5494505,10.5494505 Z" id="Path"></path>
                    <path d="M19.7787211,14.0659341 C18.690714,14.0659341 17.6866302,14.3851847 16.8219192,14.9097748 C17.0916731,14.8258404 17.3719174,14.7703837 17.667148,14.7703837 C19.2676875,14.7703837 20.5640046,16.0668708 20.5640046,17.6691191 C20.5640046,19.2668708 19.2676875,20.5663556 17.667148,20.5663556 C16.0666085,20.5663556 14.7702913,19.2683697 14.7702913,17.6691191 C14.7702913,17.3708521 14.828738,17.0905711 14.9111628,16.8222807 C14.3836442,17.687105 14.0659341,18.6913205 14.0659341,19.7794704 C14.0659341,22.9375032 16.6211025,25.4945055 19.7802198,25.4945055 C22.9348412,25.4945055 25.4945055,22.939002 25.4945055,19.7794704 C25.4945055,16.6199387 22.9333426,14.0659341 19.7787211,14.0659341 Z" id="Path"></path>
                    <path d="M20,10.9340659 C25.0059066,10.9340659 29.0659341,14.9925824 29.0659341,20 C29.0659341,25.0074176 25.0043956,29.0659341 20,29.0659341 C14.9940934,29.0659341 10.9340659,25.0074176 10.9340659,20 C10.9340659,14.9925824 14.9940934,10.9340659 20,10.9340659 M20,7.91208791 C13.3350275,7.91208791 7.91208791,13.3350275 7.91208791,20 C7.91208791,26.6649725 13.3350275,32.0879121 20,32.0879121 C26.6649725,32.0879121 32.0879121,26.6649725 32.0879121,20 C32.0879121,13.3350275 26.6649725,7.91208791 20,7.91208791 L20,7.91208791 Z" id="Shape"></path>
                    <path d="M32.1428571,0 L7.41758242,0 C3.32003381,0 0,3.32003381 0,7.41758242 L0,32.1428571 C0,36.2404057 3.32003381,39.5604396 7.41758242,39.5604396 L32.1428571,39.5604396 C36.2404057,39.5604396 39.5604396,36.2404057 39.5604396,32.1428571 L39.5604396,7.41758242 C39.5604396,3.32003381 36.2404057,0 32.1428571,0 Z M36.5173288,13.6939983 L26.5709214,13.6939983 C28.0209637,15.3114117 28.909552,17.4385461 28.909552,19.7802198 C28.909552,24.8226543 24.8196112,28.909552 19.7802198,28.909552 C14.7393068,28.909552 10.6508876,24.8226543 10.6508876,19.7802198 C10.6508876,17.4385461 11.5394759,15.3098901 12.9895182,13.6939983 L3.04311074,13.6939983 L3.04311074,7.41758242 C3.04311074,5.00591716 5.00591716,3.04311074 7.41758242,3.04311074 L32.1428571,3.04311074 C34.556044,3.04311074 36.5173288,5.00591716 36.5173288,7.41758242 L36.5173288,13.6939983 Z" id="Shape"></path>
                </g>
            </g>
        </g>
    </g>
</svg>