<?xml version="1.0" encoding="UTF-8"?>
<svg width="80px" height="80px" viewBox="0 0 80 80" version="1.1" xmlns="http://www.w3.org/2000/svg" xmlns:xlink="http://www.w3.org/1999/xlink">
    <!-- Generator: sketchtool 64 (101010) - https://sketch.com -->
    <title>A5CC1600-CA00-4736-9A3E-F3FCEE69798F</title>
    <desc>Created with sketchtool.</desc>
    <g id="Page-1" stroke="none" stroke-width="1" fill="none" fill-rule="evenodd">
        <g id="11--téléphone" transform="translate(-148.000000, -100.000000)">
            <g id="button/map" transform="translate(148.000000, 100.000000)">
                <rect id="Rectangle-Copy-2" fill="#ffffff" x="0" y="0" width="80" height="80" rx="40"></rect>
                <g id="icon/map" transform="translate(20.219780, 20.219780)" fill-rule="nonzero">
                    <g id="map">
                        <path d="M-1.17122429e-14,39.3042191 L-1.17122429e-14,0.102488185 L18.9302885,0.102488185 C18.2688874,0.250071172 17.5910027,0.34845983 16.9491758,0.554461083 C14.2254518,1.41047138 12.0542408,3.473833 11.0701382,6.14147236 C10.0860357,8.80911172 10.4001501,11.7798432 11.9206731,14.1853897 C14.4570742,18.2582702 17.0377747,22.302454 19.5999313,26.3589364 C19.6504121,26.4399021 19.7163462,26.5116438 19.78125,26.5956841 C19.8159467,26.5638636 19.8483096,26.5296133 19.8780907,26.4931959 C22.5257555,22.2911803 25.2475962,18.1393839 27.801511,13.8871491 C30.8076923,8.87957638 28.2362637,2.36132779 22.6504121,0.57495872 C21.9962225,0.369982349 21.3059753,0.267494164 20.6322115,0.112737004 L39.5604396,0.112737004 L39.5604396,39.3144679 C39.5037775,39.2017309 39.4409341,39.0920686 39.3925137,38.9762569 C38.5281593,36.9008711 37.6607143,34.8254854 36.8066621,32.7460001 C36.7036401,32.504128 36.6006181,32.4016398 36.3121566,32.4026647 C33.2864011,32.4149633 30.2606456,32.4098389 27.2359203,32.4108637 C27.1225962,32.4108637 27.0103022,32.4221374 26.8660714,32.4303365 C27.1648352,34.7609178 27.4584478,37.0617776 27.7561813,39.3903092 L39.5604396,39.3903092 C39.4607017,39.4269403 39.3569594,39.4517095 39.2513736,39.4641007 C37.6823489,39.4692251 36.112294,39.4641007 34.5432692,39.4641007 C23.1421703,39.4641007 11.7434753,39.4641007 0.347184066,39.4641007 C0.229151625,39.4518302 0.112767739,39.4270937 -1.17122429e-14,39.3903092 L11.803228,39.3903092 C12.0958104,37.0382053 12.3811813,34.7393953 12.6686126,32.4282867 C12.5728022,32.4200877 12.5233516,32.4108637 12.4728709,32.4108637 C9.37053571,32.4108637 6.26888736,32.408814 3.16792582,32.4047145 C2.94436813,32.4047145 2.85885989,32.4877299 2.78056319,32.677333 C2.37328297,33.683767 1.95879121,34.6871263 1.53708791,35.687411 C1.03021978,36.8875477 0.51510989,38.0948585 -1.17122429e-14,39.3042191 Z M15.0072115,32.4180379 C14.7166896,34.7455446 14.4313187,37.0443546 14.1428571,39.3585378 L25.4134615,39.3585378 C25.1167582,37.0341058 24.8221154,34.7322211 24.5264423,32.4180379 L15.0072115,32.4180379 Z M35.676511,30.0833571 C35.6239698,29.9439731 35.5868819,29.8373854 35.5436126,29.7338723 C34.6741071,27.6625861 33.7994505,25.5933497 32.9423077,23.5179639 C32.8392857,23.2627683 32.7084478,23.1859022 32.4385302,23.1879122 C30.3162775,23.1992256 28.1940247,23.1941012 26.071772,23.1941012 L25.6751374,23.1941012 C25.9759615,25.5216079 26.2706044,27.7968456 26.5652473,30.0833571 L35.676511,30.0833571 Z M12.9632555,30.0782326 C13.2527473,27.7855719 13.5391484,25.5093093 13.8276099,23.2176735 C13.739011,23.2084496 13.6771978,23.1951261 13.6143544,23.1951261 C11.4127747,23.1951261 9.21016484,23.1951261 7.00858516,23.1869271 C6.76751374,23.1869271 6.70982143,23.3119626 6.63770604,23.4831179 C5.96943681,25.0873996 5.29807692,26.6903149 4.62362637,28.2918636 C4.37843407,28.878096 4.13221154,29.4643284 3.87465659,30.0782326 L12.9632555,30.0782326 Z M19.2228709,30.0782326 L15.9488324,24.9364004 C15.7232143,26.7330183 15.5140797,28.3994762 15.3018544,30.0864317 L19.2228709,30.0782326 Z M20.3468407,30.0669589 L24.2245879,30.0669589 C24.0072115,28.3943518 23.7949863,26.7504413 23.5673077,24.9968684 C22.4587912,26.7453169 21.4182692,28.3830781 20.3468407,30.0710585 L20.3468407,30.0669589 Z" id="Shape" fill="#FFFFFF"></path>
                        <path d="M20.6301511,0.102488185 C21.3039148,0.253145818 21.9941621,0.355634003 22.6483516,0.564709901 C28.2362637,2.35107897 30.8076923,8.86625292 27.7994505,13.8769003 C25.2455357,18.1322098 22.5236951,22.2870808 19.8760302,26.4829471 C19.8462492,26.5193645 19.8138863,26.5536147 19.7791896,26.5854353 C19.7142857,26.501395 19.6483516,26.4296532 19.5978709,26.3486876 C17.0357143,22.2922052 14.4550137,18.2521209 11.9186126,14.1751409 C10.3980897,11.7695944 10.0839752,8.7988629 11.0680778,6.13122354 C12.0521803,3.46358418 14.2233914,1.40022256 16.9471154,0.544212264 C17.5889423,0.339235894 18.2668269,0.236747708 18.928228,0.0922393669 L20.6301511,0.102488185 Z M13.9852335,9.3192507 C13.9852335,11.6520776 15.3984833,13.7549652 17.5654394,14.6465461 C19.7323955,15.5381271 22.2258894,15.0426432 23.882267,13.391325 C25.5386447,11.7400068 26.0313829,9.25838008 25.1305326,7.10456072 C24.2296823,4.95074136 22.1128288,3.54931357 19.7678571,3.55427706 C16.5736158,3.56444631 13.9886208,6.1415454 13.9852335,9.3192507 L13.9852335,9.3192507 Z" id="Shape" fill="#000000"></path>
                        <path d="M39.5604396,39.3800604 L27.7561813,39.3800604 C27.4584478,37.0515288 27.1648352,34.750669 26.8660714,32.4200877 C27.0103022,32.4118886 27.1225962,32.4006149 27.2359203,32.4006149 C30.2606456,32.4006149 33.2864011,32.4006149 36.3121566,32.3924159 C36.595467,32.3924159 36.707761,32.4949041 36.8066621,32.7357513 C37.6607143,34.8152366 38.5281593,36.8906223 39.3925137,38.9660081 C39.4409341,39.0818197 39.5037775,39.1914821 39.5604396,39.3042191 L39.5604396,39.3800604 Z" id="Path" fill="#000000"></path>
                        <path d="M0,39.3042191 C0.51510989,38.0948585 1.03021978,36.8875477 1.53708791,35.6771622 C1.95467033,34.6761943 2.36950549,33.6728349 2.78159341,32.6670842 C2.85885989,32.4774811 2.94539835,32.3934408 3.16895604,32.3944564 C6.26991758,32.4026647 9.37156593,32.4047145 12.4739011,32.4006149 C12.5243819,32.4006149 12.5769231,32.4098389 12.6696429,32.4180379 C12.3822115,34.7291465 12.0968407,37.0300063 11.8042582,39.3800604 L0,39.3800604 L0,39.3042191 Z" id="Path" fill="#000000"></path>
                        <path d="M15.0072115,32.4180379 L24.5264423,32.4180379 C24.8221154,34.7322211 25.1167582,37.0300063 25.4134615,39.3585378 L14.1428571,39.3585378 C14.4313187,37.0443546 14.7166896,34.7455446 15.0072115,32.4180379 Z" id="Path" fill="#000000"></path>
                        <path d="M35.676511,30.0833571 L26.5652473,30.0833571 C26.2706044,27.7968456 25.9759615,25.5216079 25.6751374,23.1941012 L26.071772,23.1941012 C28.1940247,23.1941012 30.3162775,23.1941012 32.4385302,23.1879519 C32.7084478,23.1879519 32.8361951,23.2627683 32.9423077,23.5179639 C33.7994505,25.5933497 34.6741071,27.6625861 35.5436126,29.7338723 C35.5868819,29.8373854 35.6239698,29.9439731 35.676511,30.0833571 Z" id="Path" fill="#000000"></path>
                        <path d="M12.9632555,30.0782326 L3.87465659,30.0782326 C4.13221154,29.4633035 4.37843407,28.878096 4.62362637,28.2918636 C5.29532967,26.6889484 5.96668956,25.0860331 6.63770604,23.4831179 C6.70982143,23.3119626 6.76751374,23.1859022 7.00858516,23.1869209 C9.21016484,23.1982008 11.4127747,23.1941012 13.6143544,23.1951261 C13.6771978,23.1951261 13.739011,23.2084496 13.8276099,23.2176735 C13.5391484,25.5093093 13.2527473,27.7855719 12.9632555,30.0782326 Z" id="Path" fill="#000000"></path>
                        <path d="M19.2228709,30.0823322 L15.3018544,30.0823322 C15.5140797,28.3953766 15.7232143,26.7289187 15.9488324,24.9323009 L19.2228709,30.0823322 Z" id="Path" fill="#000000"></path>
                        <path d="M20.3468407,30.0710585 C21.4182692,28.3830781 22.4587912,26.7453169 23.5673077,25.0009679 C23.7949863,26.7545408 24.0072115,28.3984513 24.2245879,30.0710585 L20.3468407,30.0710585 Z" id="Path" fill="#000000"></path>
                        <path d="M13.9851759,9.3192507 C13.9748151,6.98626528 15.3788666,4.87702227 17.5420644,3.97598443 C19.7052623,3.07494659 22.2011041,3.55976522 23.8646868,5.20415729 C25.5282696,6.84854937 26.0315964,9.32830166 25.1397459,11.4860208 C24.2478953,13.64374 22.1367072,15.0540037 19.7915522,15.0585937 C16.5976121,15.0625825 14.0016858,12.4966022 13.9851759,9.3192507 L13.9851759,9.3192507 Z M23.2572115,9.29465353 C23.2537982,7.38635134 21.6970948,5.84153597 19.7788509,5.84285524 C17.8606071,5.84417619 16.3060536,7.39113267 16.305294,9.29943774 C16.3045349,11.2077428 17.8578567,12.7559232 19.7760989,12.7587542 C20.6992527,12.7584825 21.584473,12.3933304 22.2369515,11.743656 C22.88943,11.0939816 23.2556977,10.2130241 23.2551511,9.29465353 L23.2572115,9.29465353 Z" id="Shape" fill="#FFFFFF"></path>
                        <path d="M23.2552126,9.29465353 C23.2634968,10.6957521 22.4211364,11.9633796 21.1220536,12.5046492 C19.8229707,13.0459189 18.3239616,12.7538351 17.3261333,11.7650096 C16.3283051,10.7761841 16.0289034,9.28608289 16.5679626,7.99164684 C17.1070218,6.69721078 18.3779834,5.8543175 19.7864011,5.85719243 C21.6941308,5.86388788 23.2410483,7.39684849 23.2552126,9.29465353 L23.2552126,9.29465353 Z" id="Path" fill="#000000"></path>
                    </g>
                </g>
            </g>
        </g>
    </g>
</svg>