<?xml version="1.0" encoding="UTF-8" standalone="no"?>
<!DOCTYPE svg PUBLIC "-//W3C//DTD SVG 1.1//EN" "http://www.w3.org/Graphics/SVG/1.1/DTD/svg11.dtd">
<svg width="100%" height="100%" viewBox="0 0 1000 1000" version="1.1" xmlns="http://www.w3.org/2000/svg" xmlns:xlink="http://www.w3.org/1999/xlink" xml:space="preserve" xmlns:serif="http://www.serif.com/" style="fill-rule:evenodd;clip-rule:evenodd;stroke-linecap:round;stroke-linejoin:round;stroke-miterlimit:1.5;">
    <g transform="matrix(0.89344,0,0,0.89344,53.2802,19.3228)">
        <g transform="matrix(1.12599,0,0,1.12599,-29.6322,-118.412)">
            <path d="M269.821,377.374C269.821,266.688 359.683,176.826 470.369,176.826C581.054,176.826 670.917,266.688 670.917,377.374" style="fill:none;stroke:white;stroke-width:31.84px;"/>
        </g>
        <g transform="matrix(1,0,0,1,323.673,-19.2238)">
            <circle cx="176.327" cy="325.732" r="87.868" style="fill:none;stroke:white;stroke-width:35.85px;"/>
        </g>
        <g transform="matrix(-1,0,0,1,1000,0)">
            <path d="M274.184,306.509C274.184,306.509 269.58,421.662 329.936,592.066C376.117,722.448 488.866,918.922 500,918.922" style="fill:none;stroke:white;stroke-width:35.85px;"/>
        </g>
        <path d="M274.184,306.509C274.184,306.509 269.58,421.662 329.936,592.066C376.117,722.448 488.866,918.922 500,918.922" style="fill:none;stroke:white;stroke-width:35.85px;"/>
        <path d="M306.255,684.446L145.27,684.446L28.72,962.709L500,962.709" style="fill:none;stroke:white;stroke-width:35.85px;"/>
        <g transform="matrix(-1,0,0,1,1000,0)">
            <path d="M306.255,684.446L145.27,684.446L28.72,962.709L500,962.709" style="fill:none;stroke:white;stroke-width:35.85px;"/>
        </g>
    </g>
</svg>
